<svg width="76" height="76" viewBox="0 0 76 76" fill="none" xmlns="http://www.w3.org/2000/svg">
<g clip-path="url(#clip0_3444_3184)">
<path d="M37.9999 76C46.3958 76 53.2009 58.9866 53.2009 38C53.2009 17.0134 46.3958 0 37.9999 0C29.604 0 22.7988 17.0134 22.7988 38C22.7988 58.9866 29.6051 76 37.9999 76Z" fill="black"/>
<path d="M60.8022 76C65.0002 76 68.4033 58.9866 68.4033 38C68.4033 17.0134 64.9991 0 60.8022 0C56.6053 0 53.2012 17.0134 53.2012 38C53.2012 58.9866 56.6043 76 60.8022 76Z" fill="#B3B3B3"/>
<path d="M72.2008 76C74.2992 76 75.9997 58.9866 75.9997 38C75.9997 17.0134 74.2992 0 72.2008 0C70.1024 0 68.4019 17.0134 68.4019 38C68.4019 58.9866 70.1024 76 72.2008 76Z" fill="white"/>
<path d="M15.2012 76C19.3991 76 22.8022 58.9866 22.8022 38C22.8022 17.0134 19.3991 0 15.2012 0C11.0032 0 7.6001 17.0134 7.6001 38C7.6001 58.9866 11.0032 76 15.2012 76Z" fill="#B3B3B3"/>
<path d="M3.79894 76C5.89739 76 7.59789 58.9866 7.59789 38C7.59789 17.0134 5.89633 0 3.79894 0C1.70156 0 0 17.0134 0 38C0 58.9866 1.7005 76 3.79894 76Z" fill="white"/>
</g>
<defs>
<clipPath id="clip0_3444_3184">
<rect width="76" height="76" fill="white"/>
</clipPath>
</defs>
</svg>
