<?xml version="1.0" encoding="UTF-8"?>
<svg xmlns="http://www.w3.org/2000/svg" xmlns:xlink="http://www.w3.org/1999/xlink" width="1997pt" height="1169pt" viewBox="0 0 1997 1169" version="1.1">
<g id="surface1">
<path style=" stroke:none;fill-rule:nonzero;fill:rgb(75.294118%,5.882353%,9.803922%);fill-opacity:1;" d="M 854.804688 0 L 855.628906 0 C 855.453125 388.074219 855.628906 776.175781 855.511719 1164.246094 C 760.265625 1164.304688 664.988281 1164.277344 569.710938 1164.246094 C 569.621094 872.707031 569.710938 581.132812 569.652344 289.5625 C 664.664062 193.003906 759.644531 96.414062 854.804688 0 Z M 854.804688 0 "/>
<path style=" stroke:none;fill-rule:nonzero;fill:rgb(75.294118%,5.882353%,9.803922%);fill-opacity:1;" d="M 1141.429688 0 L 1142.460938 0 C 1237.324219 96.679688 1332.691406 192.855469 1427.40625 289.683594 C 1426.933594 581.28125 1427.878906 872.914062 1426.933594 1164.484375 C 1331.804688 1163.980469 1236.707031 1164.453125 1141.578125 1164.246094 C 1141.222656 776.175781 1141.546875 388.074219 1141.429688 0 Z M 1141.429688 0 "/>
<path style=" stroke:none;fill-rule:nonzero;fill:rgb(75.294118%,5.882353%,9.803922%);fill-opacity:1;" d="M 1711.40625 579.984375 C 1806.121094 675.835938 1900.425781 772.128906 1995.230469 867.894531 C 1994.550781 965.605469 1995.671875 1063.316406 1994.667969 1160.96875 C 1900.308594 1161.234375 1805.855469 1161.53125 1711.464844 1160.851562 C 1711.257812 967.230469 1711.40625 773.605469 1711.40625 579.984375 Z M 1711.40625 579.984375 "/>
<path style=" stroke:none;fill-rule:nonzero;fill:rgb(75.294118%,5.882353%,9.803922%);fill-opacity:1;" d="M 0 871.996094 C 95.304688 775.257812 190.613281 678.523438 285.886719 581.753906 C 285.859375 776.589844 285.917969 971.449219 285.859375 1166.3125 C 190.582031 1166.609375 95.277344 1166.371094 0 1166.433594 Z M 0 871.996094 "/>
<path style=" stroke:none;fill-rule:nonzero;fill:rgb(81.568627%,28.235294%,30.980392%);fill-opacity:1;" d="M 1995.230469 867.894531 L 1997.589844 870.253906 L 1997.589844 1162.976562 C 1902.253906 1162.359375 1806.859375 1162.625 1711.496094 1162.832031 L 1711.464844 1160.851562 C 1805.855469 1161.53125 1900.308594 1161.234375 1994.667969 1160.96875 C 1995.671875 1063.316406 1994.550781 965.605469 1995.230469 867.894531 Z M 1995.230469 867.894531 "/>
</g>
</svg>
