<svg width="1920" height="1081" viewBox="0 0 1920 1081" fill="none" xmlns="http://www.w3.org/2000/svg">
<rect width="1920" height="1080" transform="translate(0 0.582031)" fill="white"/>
<g clip-path="url(#clip0_102_491)">
<path d="M875.09 512.702L824.66 610.402L774.21 512.702H803.49L824.66 553.782L845.83 512.702H875.09Z" fill="black"/>
<path d="M878.57 559.802C878.57 545.802 883.37 534.042 892.79 524.622C902.41 515.202 914.33 510.402 928.36 510.402C942.39 510.402 954.36 515.202 963.73 524.622C973.343 534.042 978.15 545.769 978.15 559.802C978.15 573.802 973.34 585.562 963.92 594.982C954.5 604.402 942.59 608.982 928.36 608.982C914.13 608.982 902.21 604.362 892.79 594.982C883.37 585.602 878.57 573.842 878.57 559.802ZM906.44 559.802C906.44 566.722 908.56 572.492 912.6 576.912C914.637 579.039 917.083 580.732 919.792 581.889C922.5 583.045 925.415 583.641 928.36 583.641C931.305 583.641 934.22 583.045 936.928 581.889C939.637 580.732 942.083 579.039 944.12 576.912C948.12 572.492 950.27 566.722 950.27 559.802C950.27 552.882 948.16 547.122 944.12 542.692C942.081 540.567 939.635 538.877 936.926 537.722C934.218 536.567 931.304 535.972 928.36 535.972C925.416 535.972 922.502 536.567 919.793 537.722C917.085 538.877 914.638 540.567 912.6 542.692C908.56 547.122 906.44 552.882 906.44 559.802Z" fill="black"/>
<path d="M1084.23 589.022C1074.04 602.292 1060.4 609.022 1042.9 609.022C1028.68 609.022 1016.76 604.402 1007.34 595.022C997.92 585.642 993.11 573.882 993.11 559.842C993.11 545.802 997.92 534.082 1007.34 524.662C1016.95 515.242 1028.87 510.442 1042.9 510.442C1057.9 510.442 1070.97 516.782 1082.31 529.282L1063.83 547.122C1057.83 539.812 1051.14 536.122 1043.83 536.122C1030.76 536.122 1020.96 545.922 1020.96 559.762C1020.96 573.602 1030.76 583.412 1043.83 583.412C1052.1 583.412 1059.4 579.412 1065.75 571.112L1084.23 589.022Z" fill="black"/>
<path d="M1107.94 524.242C1116.94 515.012 1128.32 510.402 1141.58 510.402C1151.39 510.402 1159.46 513.092 1165.8 518.662V472.142H1193.1V606.902H1166.19V600.172C1160.04 606.172 1151.77 609.022 1141.58 609.022C1128.32 609.022 1116.97 604.602 1107.94 595.562C1098.91 586.522 1094.48 574.562 1094.48 559.802C1094.48 545.192 1098.9 533.282 1107.94 524.242ZM1166.19 559.802C1166.19 552.692 1164.07 546.732 1159.84 542.122C1157.93 539.877 1155.54 538.09 1152.84 536.893C1150.15 535.695 1147.22 535.117 1144.27 535.202C1141.3 535.137 1138.35 535.723 1135.62 536.919C1132.9 538.114 1130.47 539.89 1128.51 542.122C1124.51 546.732 1122.36 552.692 1122.36 559.802C1122.36 566.912 1124.47 572.882 1128.51 577.492C1130.48 579.723 1132.9 581.498 1135.63 582.693C1138.35 583.888 1141.3 584.475 1144.27 584.412C1147.22 584.495 1150.15 583.916 1152.84 582.719C1155.53 581.521 1157.93 579.735 1159.84 577.492C1164.07 572.882 1166.19 566.922 1166.19 559.802Z" fill="black"/>
<path d="M1210 559.802C1210 545.802 1214.81 534.042 1224.23 524.622C1233.84 515.202 1245.76 510.402 1259.8 510.402C1273.84 510.402 1285.8 515.202 1295.17 524.622C1304.78 534.042 1309.59 545.769 1309.59 559.802C1309.59 573.802 1304.78 585.562 1295.36 594.982C1285.94 604.402 1274.02 608.982 1259.8 608.982C1245.58 608.982 1233.65 604.362 1224.23 594.982C1214.81 585.602 1210 573.842 1210 559.802ZM1237.88 559.802C1237.88 566.722 1239.99 572.492 1244.03 576.912C1246.07 579.04 1248.51 580.733 1251.22 581.889C1253.93 583.046 1256.85 583.642 1259.79 583.642C1262.74 583.642 1265.66 583.046 1268.37 581.889C1271.07 580.733 1273.52 579.04 1275.56 576.912C1279.56 572.492 1281.71 566.722 1281.71 559.802C1281.71 552.882 1279.6 547.122 1275.56 542.692C1273.52 540.567 1271.07 538.876 1268.36 537.721C1265.65 536.567 1262.74 535.971 1259.79 535.971C1256.85 535.971 1253.94 536.567 1251.23 537.721C1248.52 538.876 1246.07 540.567 1244.03 542.692C1239.99 547.122 1237.88 552.882 1237.88 559.802V559.802Z" fill="black"/>
<path d="M1324.83 512.702H1370.92C1381.99 512.705 1392.6 517.104 1400.43 524.931C1408.25 532.759 1412.65 543.374 1412.65 554.442V606.902H1385.13V554.582C1385.06 550.159 1383.26 545.939 1380.11 542.826C1376.97 539.713 1372.73 537.953 1368.31 537.922H1352.1V606.922H1324.83V512.702Z" fill="black"/>
<path d="M1432.51 606.902V512.702H1460V606.902H1432.51Z" fill="black"/>
<path d="M1460 472.152H1432.56V499.592H1460V472.152Z" fill="black"/>
<path d="M648.53 548.952L585.68 585.242L522.84 548.962L460 512.672V575.522L522.84 611.802L585.68 648.082L648.52 611.802L711.37 575.522V512.672L648.53 548.952Z" fill="black"/>
<path d="M614.16 433.082L551.32 469.362V532.212L614.16 495.922V433.082Z" fill="black"/>
</g>
<defs>
<clipPath id="clip0_102_491">
<rect width="1000" height="215" fill="white" transform="translate(460 433.082)"/>
</clipPath>
</defs>
</svg>
