<svg width="33" height="32" viewBox="0 0 33 32" fill="none" xmlns="http://www.w3.org/2000/svg">
<path d="M7.79232 4.01758H24.8929V7.4186H29.7557L28.7366 10.8205H27.8737V24.5823C28.3064 24.5823 28.6577 24.9278 28.6577 25.3547V26.2824H28.8147C29.2482 26.2824 29.5996 26.6288 29.5996 27.0557V27.9834H20.8134V27.0557C20.8134 26.6288 21.1647 26.2824 21.5982 26.2824H21.7552V25.3547C21.7552 24.9835 22.021 24.6737 22.3748 24.599L22.3582 17.0054C22.0808 13.9715 19.4937 11.5937 16.3426 11.5937C13.1916 11.5937 10.6045 13.9715 10.3271 17.0054L10.3105 24.5923C10.7291 24.6538 11.244 24.9719 11.244 25.3547V26.2824H11.401C11.8337 26.2824 12.185 26.6288 12.185 27.0557V27.9834H3.39965V27.0557C3.39965 26.6288 3.75096 26.2824 4.18367 26.2824H4.34064V25.3547C4.34064 24.9278 4.69195 24.5823 5.12549 24.5823V10.8205H4.26257L3.24268 7.4186H7.79232V4.01758Z" fill="white"/>
<path d="M24.8932 4.01741H24.9505V3.96094H24.8932V4.01741ZM7.79256 4.01741V3.96094H7.73525V4.01741H7.79256ZM24.8932 7.41843H24.8359V7.47491H24.8932V7.41843ZM29.7559 7.41843L29.8116 7.43505L29.8332 7.36196H29.7559V7.41843ZM28.7369 10.8203V10.8768H28.7792L28.7917 10.8361L28.7369 10.8203ZM27.874 10.8203V10.7638H27.8166V10.8203H27.874ZM27.874 24.5822H27.8166V24.6386H27.874V24.5822ZM28.658 26.2823H28.6007V26.3387H28.658V26.2823ZM29.5998 27.9832V28.0397H29.6563V27.9832H29.5998ZM20.8136 27.9832H20.7563V28.0397H20.8136V27.9832ZM21.7554 26.2823V26.3387H21.8127V26.2823H21.7554ZM22.375 24.5988L22.3875 24.6536L22.4323 24.6445V24.5988H22.375ZM22.3584 17.0052H22.4157V17.0028L22.4149 17.0003L22.3584 17.0052ZM10.3273 17.0052L10.27 17.0003V17.0028V17.0052H10.3273ZM10.3107 24.5921H10.2534L10.2526 24.6411L10.3016 24.6486L10.3107 24.5921ZM11.2442 26.2823H11.1869V26.3387H11.2442V26.2823ZM12.1852 27.9832V28.0397H12.2425V27.9832H12.1852ZM3.39988 27.9832H3.34258V28.0397H3.39988V27.9832ZM4.34087 26.2823V26.3387H4.39818V26.2823H4.34087ZM5.12572 24.5822V24.6386H5.18303V24.5822H5.12572ZM5.12572 10.8203H5.18303V10.7638H5.12572V10.8203ZM4.2628 10.8203L4.20799 10.8361L4.21962 10.8768H4.2628V10.8203ZM3.24291 7.41843V7.36279H3.1665L3.1881 7.43505L3.24291 7.41843ZM7.79256 7.41843V7.47491H7.84986V7.41843H7.79256ZM24.8932 3.96094H7.79256V4.07306H24.8932V3.96094ZM24.9505 7.41843V4.01741H24.8359V7.41843H24.9505ZM29.7559 7.36196H24.8932V7.47491H29.7559V7.36196ZM28.7917 10.8361L29.8116 7.43505L29.7011 7.40265L28.6812 10.8045L28.7917 10.8361ZM27.874 10.8768H28.7369V10.7638H27.874V10.8768ZM27.9313 24.5822V10.8203H27.8166V24.5822H27.9313ZM28.7153 25.3546C28.7153 24.8969 28.3382 24.5257 27.874 24.5257V24.6386C28.2751 24.6386 28.6007 24.9592 28.6007 25.3546H28.7153ZM28.7153 26.2823V25.3546H28.6007V26.2823H28.7153ZM28.8149 26.2266H28.658V26.3387H28.8149V26.2266ZM29.6563 27.0555C29.6563 26.5979 29.28 26.2266 28.8149 26.2266V26.3387C29.2169 26.3387 29.5425 26.6602 29.5425 27.0555H29.6563ZM29.6563 27.9832V27.0555H29.5425V27.9832H29.6563ZM24.8932 28.0397H29.5998V27.9267H24.8932V28.0397ZM22.3825 28.0397H24.8932V27.9267H22.3825V28.0397ZM20.8136 28.0397H22.3825V27.9267H20.8136V28.0397ZM20.7563 27.0555V27.9832H20.8709V27.0555H20.7563ZM21.5985 26.2266C21.1334 26.2266 20.7563 26.5979 20.7563 27.0555H20.8709C20.8709 26.6602 21.1965 26.3387 21.5985 26.3387V26.2266ZM21.7554 26.2266H21.5985V26.3387H21.7554V26.2266ZM21.6981 25.3546V26.2823H21.8127V25.3546H21.6981ZM22.3634 24.544C21.983 24.6237 21.6981 24.9567 21.6981 25.3546H21.8127C21.8127 25.0107 22.0586 24.7234 22.3875 24.6536L22.3634 24.544ZM22.3011 17.0052L22.3177 24.5988H22.4323L22.4157 17.0052H22.3011ZM16.3429 11.65C19.4632 11.65 22.0262 14.0054 22.3011 17.0102L22.4149 17.0003C22.135 13.9373 19.5238 11.537 16.3429 11.537V11.65ZM10.3846 17.0102C10.6595 14.0054 13.2217 11.65 16.3429 11.65V11.537C13.1619 11.537 10.5507 13.9373 10.27 17.0003L10.3846 17.0102ZM10.368 24.5921L10.3846 17.0052H10.27L10.2534 24.5921H10.368ZM11.3015 25.3546C11.3015 25.1378 11.1562 24.9476 10.9685 24.8081C10.78 24.6669 10.5375 24.5689 10.319 24.5365L10.3016 24.6486C10.5017 24.6785 10.726 24.7682 10.8996 24.8978C11.0748 25.0282 11.1869 25.1885 11.1869 25.3546H11.3015ZM11.3015 26.2823V25.3546H11.1869V26.2823H11.3015ZM11.4012 26.2266H11.2442V26.3387H11.4012V26.2266ZM12.2425 27.0555C12.2425 26.5979 11.8655 26.2266 11.4012 26.2266V26.3387C11.8024 26.3387 12.1279 26.6602 12.1279 27.0555H12.2425ZM12.2425 27.9832V27.0555H12.1279V27.9832H12.2425ZM10.3024 28.0397H12.1852V27.9267H10.3024V28.0397ZM10.172 28.0397H10.3024V27.9267H10.172V28.0397ZM7.79256 28.0397H10.172V27.9267H7.79256V28.0397ZM3.39988 28.0397H7.79256V27.9267H3.39988V28.0397ZM3.34258 27.0555V27.9832H3.45719V27.0555H3.34258ZM4.1839 26.2266C3.71964 26.2266 3.34258 26.5979 3.34258 27.0555H3.45719C3.45719 26.6602 3.78276 26.3387 4.1839 26.3387V26.2266ZM4.34087 26.2266H4.1839V26.3387H4.34087V26.2266ZM4.28357 25.3546V26.2823H4.39818V25.3546H4.28357ZM5.12572 24.5257C4.66063 24.5257 4.28357 24.8969 4.28357 25.3546H4.39818C4.39818 24.9592 4.72375 24.6386 5.12572 24.6386V24.5257ZM5.06842 10.8203V24.5822H5.18303V10.8203H5.06842ZM4.2628 10.8768H5.12572V10.7638H4.2628V10.8768ZM3.1881 7.43505L4.20799 10.8361L4.31762 10.8045L3.29773 7.40265L3.1881 7.43505ZM7.79256 7.36196L3.24291 7.36279V7.47491H7.79256V7.36196ZM7.73525 4.01741V7.41843H7.84986V4.01741H7.73525Z" fill="white"/>
</svg>
