<svg width="1920" height="480" viewBox="0 0 1920 480" fill="none" xmlns="http://www.w3.org/2000/svg">
<ellipse cx="66.8539" cy="166.126" rx="7.40512" ry="8.77473" fill="#D9E5FF"/>
<ellipse cx="66.8539" cy="166.126" rx="7.40512" ry="8.77473" fill="#D9E5FF"/>
<ellipse cx="79.8131" cy="340.166" rx="7.40512" ry="8.77473" fill="#D9E5FF"/>
<ellipse cx="174.85" cy="188.308" rx="7.40512" ry="8.77473" fill="#D9E5FF"/>
<ellipse cx="167.65" cy="304.334" rx="7.40512" ry="8.77473" fill="#D9E5FF"/>
<ellipse cx="43.8143" cy="375.998" rx="7.40512" ry="8.77473" fill="#D9E5FF"/>
<ellipse cx="405.241" cy="14.2679" rx="7.40512" ry="8.77473" fill="#D9E5FF"/>
<ellipse cx="271.326" cy="133.707" rx="7.40512" ry="8.77473" fill="#D9E5FF"/>
<ellipse cx="606.834" cy="145.651" rx="7.40512" ry="8.77473" fill="#D9E5FF"/>
<ellipse cx="648.593" cy="101.288" rx="7.40512" ry="8.77473" fill="#D9E5FF"/>
<ellipse cx="732.11" cy="56.9249" rx="7.40512" ry="8.77473" fill="#D9E5FF"/>
<ellipse cx="596.755" cy="271.915" rx="7.40512" ry="8.77473" fill="#D9E5FF"/>
<ellipse cx="160.45" cy="416.949" rx="7.40512" ry="8.77473" fill="#D9E5FF"/>
<ellipse cx="193.569" cy="77.4" rx="7.40512" ry="8.77473" fill="#D9E5FF"/>
<ellipse cx="435.481" cy="220.727" rx="7.40512" ry="8.77473" fill="#D9E5FF"/>
<ellipse cx="606.834" cy="89.3441" rx="7.40512" ry="8.77473" fill="#D9E5FF"/>
<ellipse cx="321.724" cy="200.252" rx="7.40512" ry="8.77473" fill="#D9E5FF"/>
<ellipse cx="351.963" cy="196.839" rx="7.40512" ry="8.77473" fill="#D9E5FF"/>
<ellipse cx="339.004" cy="244.615" rx="7.40512" ry="8.77473" fill="#D9E5FF"/>
<ellipse cx="219.077" cy="34.7432" rx="8.77473" ry="7.40512" transform="rotate(90 219.077 34.7432)" fill="#D9E5FF"/>
<ellipse cx="72.2028" cy="50.0997" rx="8.77473" ry="7.40512" transform="rotate(90 72.2028 50.0997)" fill="#D9E5FF"/>
<ellipse cx="200.358" cy="164.42" rx="8.77473" ry="7.40512" transform="rotate(90 200.358 164.42)" fill="#D9E5FF"/>
<ellipse cx="102.442" cy="154.183" rx="8.77473" ry="7.40512" transform="rotate(90 102.442 154.183)" fill="#D9E5FF"/>
<ellipse cx="41.9638" cy="9.14924" rx="8.77473" ry="7.40512" transform="rotate(90 41.9638 9.14924)" fill="#D9E5FF"/>
<ellipse cx="347.233" cy="435.717" rx="8.77473" ry="7.40512" transform="rotate(90 347.233 435.717)" fill="#D9E5FF"/>
<ellipse cx="246.436" cy="277.034" rx="8.77473" ry="7.40512" transform="rotate(90 246.436 277.034)" fill="#D9E5FF"/>
<ellipse cx="7.40518" cy="145.651" rx="8.77473" ry="7.40512" transform="rotate(90 7.40518 145.651)" fill="#D9E5FF"/>
<ellipse cx="293.955" cy="184.895" rx="8.77473" ry="7.40512" transform="rotate(90 293.955 184.895)" fill="#D9E5FF"/>
<ellipse cx="190.278" cy="336.753" rx="8.77473" ry="7.40512" transform="rotate(90 190.278 336.753)" fill="#D9E5FF"/>
<ellipse cx="193.158" cy="372.585" rx="8.77473" ry="7.40512" transform="rotate(90 193.158 372.585)" fill="#D9E5FF"/>
<ellipse cx="152.84" cy="357.229" rx="8.77473" ry="7.40512" transform="rotate(90 152.84 357.229)" fill="#D9E5FF"/>
<ellipse cx="7.49183" cy="8.70082" rx="7.49183" ry="8.70082" transform="matrix(0.959189 0.282766 -0.205473 0.978663 438.468 185.251)" fill="#D9E5FF"/>
<ellipse cx="7.49183" cy="8.70082" rx="7.49183" ry="8.70082" transform="matrix(0.959189 0.282766 -0.205473 0.978663 415.414 356.883)" fill="#D9E5FF"/>
<ellipse cx="7.49183" cy="8.70082" rx="7.49183" ry="8.70082" transform="matrix(0.959189 0.282766 -0.205473 0.978663 539.339 236.521)" fill="#D9E5FF"/>
<ellipse cx="7.49183" cy="8.70082" rx="7.49183" ry="8.70082" transform="matrix(0.959189 0.282766 -0.205473 0.978663 508.282 347.345)" fill="#D9E5FF"/>
<ellipse cx="7.49183" cy="8.70082" rx="7.49183" ry="8.70082" transform="matrix(0.959189 0.282766 -0.205473 0.978663 373.887 381.557)" fill="#D9E5FF"/>
<ellipse cx="7.49183" cy="8.70082" rx="7.49183" ry="8.70082" transform="matrix(0.959189 0.282766 -0.205473 0.978663 797.099 134.08)" fill="#D9E5FF"/>
<ellipse cx="7.49183" cy="8.70082" rx="7.49183" ry="8.70082" transform="matrix(0.959189 0.282766 -0.205473 0.978663 643.192 211.764)" fill="#D9E5FF"/>
<ellipse cx="7.49183" cy="8.70082" rx="7.49183" ry="8.70082" transform="matrix(0.959189 0.282766 -0.205473 0.978663 477.835 455.27)" fill="#D9E5FF"/>
<ellipse cx="7.49183" cy="8.70082" rx="7.49183" ry="8.70082" transform="matrix(0.959189 0.282766 -0.205473 0.978663 578.958 134.376)" fill="#D9E5FF"/>
<ellipse cx="7.49183" cy="8.70082" rx="7.49183" ry="8.70082" transform="matrix(0.959189 0.282766 -0.205473 0.978663 678.708 289.913)" fill="#D9E5FF"/>
<ellipse cx="7.49183" cy="8.70082" rx="7.49183" ry="8.70082" transform="matrix(0.959189 0.282766 -0.205473 0.978663 708.654 295.664)" fill="#D9E5FF"/>
<ellipse cx="7.49183" cy="8.70082" rx="7.49183" ry="8.70082" transform="matrix(0.959189 0.282766 -0.205473 0.978663 686.698 338.413)" fill="#D9E5FF"/>
<ellipse cx="4.38736" cy="3.70256" rx="4.38736" ry="3.70256" transform="matrix(-3.68887e-08 -1 -1 5.1796e-08 226.482 454.243)" fill="#0053FF"/>
<ellipse cx="4.38736" cy="3.70256" rx="4.38736" ry="3.70256" transform="matrix(-3.68887e-08 -1 -1 5.1796e-08 79.6079 438.886)" fill="#0053FF"/>
<ellipse cx="4.38736" cy="3.70256" rx="4.38736" ry="3.70256" transform="matrix(-3.68887e-08 -1 -1 5.1796e-08 207.763 324.566)" fill="#0053FF"/>
<ellipse cx="4.75298" cy="3.70256" rx="4.75298" ry="3.70256" transform="matrix(-3.68887e-08 -1 -1 5.1796e-08 109.847 334.804)" fill="#0053FF"/>
<ellipse cx="4.38736" cy="3.70256" rx="4.38736" ry="3.70256" transform="matrix(-3.68887e-08 -1 -1 5.1796e-08 49.3689 479.837)" fill="#0053FF"/>
<ellipse cx="4.38736" cy="3.70256" rx="4.38736" ry="3.70256" transform="matrix(-3.68887e-08 -1 -1 5.1796e-08 354.638 53.2688)" fill="#0053FF"/>
<ellipse cx="4.38736" cy="3.70256" rx="4.38736" ry="3.70256" transform="matrix(-3.68887e-08 -1 -1 5.1796e-08 253.842 211.952)" fill="#0053FF"/>
<ellipse cx="4.04988" cy="3.70256" rx="4.04988" ry="3.70256" transform="matrix(-3.68887e-08 -1 -1 5.1796e-08 14.8103 343.335)" fill="#0053FF"/>
<ellipse cx="4.38736" cy="3.70256" rx="4.38736" ry="3.70256" transform="matrix(-3.68887e-08 -1 -1 5.1796e-08 301.36 304.091)" fill="#0053FF"/>
<ellipse cx="4.38736" cy="3.70256" rx="4.38736" ry="3.70256" transform="matrix(-3.68887e-08 -1 -1 5.1796e-08 197.683 152.233)" fill="#0053FF"/>
<ellipse cx="4.38736" cy="3.70256" rx="4.38736" ry="3.70256" transform="matrix(-3.68887e-08 -1 -1 5.1796e-08 200.563 116.401)" fill="#0053FF"/>
<ellipse cx="4.75298" cy="3.70256" rx="4.75298" ry="3.70256" transform="matrix(-3.68887e-08 -1 -1 5.1796e-08 160.245 131.757)" fill="#0053FF"/>
<ellipse cx="3.74591" cy="4.35041" rx="3.74591" ry="4.35041" transform="matrix(0.959189 -0.282766 -0.205473 -0.978663 438.468 295.083)" fill="#0053FF"/>
<ellipse cx="3.74591" cy="4.35041" rx="3.74591" ry="4.35041" transform="matrix(0.959189 -0.282766 -0.205473 -0.978663 415.414 123.45)" fill="#0053FF"/>
<ellipse cx="3.74591" cy="4.35041" rx="3.74591" ry="4.35041" transform="matrix(0.959189 -0.282766 -0.205473 -0.978663 539.339 243.812)" fill="#0053FF"/>
<ellipse cx="3.74591" cy="4.35041" rx="3.74591" ry="4.35041" transform="matrix(0.959189 -0.282766 -0.205473 -0.978663 508.282 132.988)" fill="#0053FF"/>
<ellipse cx="3.74591" cy="4.35041" rx="3.74591" ry="4.35041" transform="matrix(0.959189 -0.282766 -0.205473 -0.978663 373.887 98.7764)" fill="#0053FF"/>
<ellipse cx="3.74591" cy="4.35041" rx="3.74591" ry="4.35041" transform="matrix(0.959189 -0.282766 -0.205473 -0.978663 797.099 346.253)" fill="#0053FF"/>
<ellipse cx="3.74591" cy="4.35041" rx="3.74591" ry="4.35041" transform="matrix(0.959189 -0.282766 -0.205473 -0.978663 643.192 268.569)" fill="#0053FF"/>
<ellipse cx="3.74591" cy="4.35041" rx="3.74591" ry="4.35041" transform="matrix(0.959189 -0.282766 -0.205473 -0.978663 477.835 25.064)" fill="#0053FF"/>
<ellipse cx="3.74591" cy="4.35041" rx="3.74591" ry="4.35041" transform="matrix(0.959189 -0.282766 -0.205473 -0.978663 578.958 345.957)" fill="#0053FF"/>
<ellipse cx="3.74591" cy="4.35041" rx="3.74591" ry="4.35041" transform="matrix(0.959189 -0.282766 -0.205473 -0.978663 678.708 190.42)" fill="#0053FF"/>
<ellipse cx="3.74591" cy="4.35041" rx="3.74591" ry="4.35041" transform="matrix(0.959189 -0.282766 -0.205473 -0.978663 708.654 184.669)" fill="#0053FF"/>
<ellipse cx="3.74591" cy="4.35041" rx="3.74591" ry="4.35041" transform="matrix(0.959189 -0.282766 -0.205473 -0.978663 686.698 141.92)" fill="#0053FF"/>
<ellipse cx="732.11" cy="428.892" rx="7.40512" ry="8.77473" fill="#D9E5FF"/>
<ellipse cx="769.548" cy="340.166" rx="7.40512" ry="8.77473" fill="#D9E5FF"/>
<ellipse cx="500.278" cy="396.473" rx="7.40512" ry="8.77473" fill="#D9E5FF"/>
<ellipse cx="688.911" cy="142.239" rx="7.40512" ry="8.77473" fill="#D9E5FF"/>
<ellipse cx="7.40512" cy="8.77473" rx="7.40512" ry="8.77473" transform="matrix(1 0 0 -1 1168.21 322.86)" fill="#D9E5FF"/>
<ellipse cx="7.40512" cy="8.77473" rx="7.40512" ry="8.77473" transform="matrix(1 0 0 -1 1168.21 322.86)" fill="#D9E5FF"/>
<ellipse cx="7.40512" cy="8.77473" rx="7.40512" ry="8.77473" transform="matrix(1 0 0 -1 1181.17 148.82)" fill="#D9E5FF"/>
<ellipse cx="7.40512" cy="8.77473" rx="7.40512" ry="8.77473" transform="matrix(1 0 0 -1 1276.2 300.678)" fill="#D9E5FF"/>
<ellipse cx="7.40512" cy="8.77473" rx="7.40512" ry="8.77473" transform="matrix(1 0 0 -1 1269.01 184.652)" fill="#D9E5FF"/>
<ellipse cx="7.40512" cy="8.77473" rx="7.40512" ry="8.77473" transform="matrix(1 0 0 -1 1145.17 112.989)" fill="#D9E5FF"/>
<ellipse cx="7.40512" cy="8.77473" rx="7.40512" ry="8.77473" transform="matrix(1 0 0 -1 1505.16 474.718)" fill="#D9E5FF"/>
<ellipse cx="7.40512" cy="8.77473" rx="7.40512" ry="8.77473" transform="matrix(1 0 0 -1 1372.68 355.279)" fill="#D9E5FF"/>
<ellipse cx="7.40512" cy="8.77473" rx="7.40512" ry="8.77473" transform="matrix(1 0 0 -1 1706.75 343.335)" fill="#D9E5FF"/>
<ellipse cx="7.40512" cy="8.77473" rx="7.40512" ry="8.77473" transform="matrix(1 0 0 -1 1749.95 387.698)" fill="#D9E5FF"/>
<ellipse cx="7.40512" cy="8.77473" rx="7.40512" ry="8.77473" transform="matrix(1 0 0 -1 1833.46 432.062)" fill="#D9E5FF"/>
<ellipse cx="7.40512" cy="8.77473" rx="7.40512" ry="8.77473" transform="matrix(1 0 0 -1 1696.67 217.071)" fill="#D9E5FF"/>
<ellipse cx="7.40512" cy="8.77473" rx="7.40512" ry="8.77473" transform="matrix(1 0 0 -1 1261.81 72.0378)" fill="#D9E5FF"/>
<ellipse cx="7.40512" cy="8.77473" rx="7.40512" ry="8.77473" transform="matrix(1 0 0 -1 1294.92 411.586)" fill="#D9E5FF"/>
<ellipse cx="7.40512" cy="8.77473" rx="7.40512" ry="8.77473" transform="matrix(1 0 0 -1 1535.4 268.259)" fill="#D9E5FF"/>
<ellipse cx="7.40512" cy="8.77473" rx="7.40512" ry="8.77473" transform="matrix(1 0 0 -1 1706.75 399.642)" fill="#D9E5FF"/>
<ellipse cx="7.40512" cy="8.77473" rx="7.40512" ry="8.77473" transform="matrix(1 0 0 -1 1423.08 288.734)" fill="#D9E5FF"/>
<ellipse cx="7.40512" cy="8.77473" rx="7.40512" ry="8.77473" transform="matrix(1 0 0 -1 1453.32 292.147)" fill="#D9E5FF"/>
<ellipse cx="7.40512" cy="8.77473" rx="7.40512" ry="8.77473" transform="matrix(1 0 0 -1 1440.36 244.371)" fill="#D9E5FF"/>
<ellipse cx="8.77473" cy="7.40512" rx="8.77473" ry="7.40512" transform="matrix(-3.68887e-08 -1 -1 5.1796e-08 1335.24 454.243)" fill="#D9E5FF"/>
<ellipse cx="8.77473" cy="7.40512" rx="8.77473" ry="7.40512" transform="matrix(-3.68887e-08 -1 -1 5.1796e-08 1188.37 438.886)" fill="#D9E5FF"/>
<ellipse cx="8.77473" cy="7.40512" rx="8.77473" ry="7.40512" transform="matrix(-3.68887e-08 -1 -1 5.1796e-08 1316.52 324.566)" fill="#D9E5FF"/>
<ellipse cx="8.77473" cy="7.40512" rx="8.77473" ry="7.40512" transform="matrix(-3.68887e-08 -1 -1 5.1796e-08 1218.61 334.804)" fill="#D9E5FF"/>
<ellipse cx="8.77473" cy="7.40512" rx="8.77473" ry="7.40512" transform="matrix(-3.68887e-08 -1 -1 5.1796e-08 1158.13 479.837)" fill="#D9E5FF"/>
<ellipse cx="8.77473" cy="7.40512" rx="8.77473" ry="7.40512" transform="matrix(-3.68887e-08 -1 -1 5.1796e-08 1463.4 53.2688)" fill="#D9E5FF"/>
<ellipse cx="8.77473" cy="7.40512" rx="8.77473" ry="7.40512" transform="matrix(-3.68887e-08 -1 -1 5.1796e-08 1362.6 211.952)" fill="#D9E5FF"/>
<ellipse cx="8.77473" cy="7.40512" rx="8.77473" ry="7.40512" transform="matrix(-3.68887e-08 -1 -1 5.1796e-08 1123.57 343.335)" fill="#D9E5FF"/>
<ellipse cx="8.77473" cy="7.40512" rx="8.77473" ry="7.40512" transform="matrix(-3.68887e-08 -1 -1 5.1796e-08 1410.12 304.091)" fill="#D9E5FF"/>
<ellipse cx="8.77473" cy="7.40512" rx="8.77473" ry="7.40512" transform="matrix(-3.68887e-08 -1 -1 5.1796e-08 1306.44 152.233)" fill="#D9E5FF"/>
<ellipse cx="8.77473" cy="7.40512" rx="8.77473" ry="7.40512" transform="matrix(-3.68887e-08 -1 -1 5.1796e-08 1309.32 116.401)" fill="#D9E5FF"/>
<ellipse cx="8.77473" cy="7.40512" rx="8.77473" ry="7.40512" transform="matrix(-3.68887e-08 -1 -1 5.1796e-08 1269.01 131.757)" fill="#D9E5FF"/>
<ellipse cx="7.49183" cy="8.70082" rx="7.49183" ry="8.70082" transform="matrix(0.959189 -0.282766 -0.205473 -0.978663 1547 295.083)" fill="#D9E5FF"/>
<ellipse cx="7.49183" cy="8.70082" rx="7.49183" ry="8.70082" transform="matrix(0.959189 -0.282766 -0.205473 -0.978663 1523.94 123.45)" fill="#D9E5FF"/>
<ellipse cx="7.49183" cy="8.70082" rx="7.49183" ry="8.70082" transform="matrix(0.959189 -0.282766 -0.205473 -0.978663 1647.87 243.812)" fill="#D9E5FF"/>
<ellipse cx="7.49183" cy="8.70082" rx="7.49183" ry="8.70082" transform="matrix(0.959189 -0.282766 -0.205473 -0.978663 1616.81 132.988)" fill="#D9E5FF"/>
<ellipse cx="7.49183" cy="8.70082" rx="7.49183" ry="8.70082" transform="matrix(0.959189 -0.282766 -0.205473 -0.978663 1482.42 98.7764)" fill="#D9E5FF"/>
<ellipse cx="7.49183" cy="8.70082" rx="7.49183" ry="8.70082" transform="matrix(0.959189 -0.282766 -0.205473 -0.978663 1905.63 346.253)" fill="#D9E5FF"/>
<ellipse cx="7.49183" cy="8.70082" rx="7.49183" ry="8.70082" transform="matrix(0.959189 -0.282766 -0.205473 -0.978663 1751.72 268.569)" fill="#D9E5FF"/>
<ellipse cx="7.49183" cy="8.70082" rx="7.49183" ry="8.70082" transform="matrix(0.959189 -0.282766 -0.205473 -0.978663 1586.36 25.064)" fill="#D9E5FF"/>
<ellipse cx="7.49183" cy="8.70082" rx="7.49183" ry="8.70082" transform="matrix(0.959189 -0.282766 -0.205473 -0.978663 1687.49 345.957)" fill="#D9E5FF"/>
<ellipse cx="7.49183" cy="8.70082" rx="7.49183" ry="8.70082" transform="matrix(0.959189 -0.282766 -0.205473 -0.978663 1787.24 190.42)" fill="#D9E5FF"/>
<ellipse cx="7.49183" cy="8.70082" rx="7.49183" ry="8.70082" transform="matrix(0.959189 -0.282766 -0.205473 -0.978663 1817.18 184.669)" fill="#D9E5FF"/>
<ellipse cx="7.49183" cy="8.70082" rx="7.49183" ry="8.70082" transform="matrix(0.959189 -0.282766 -0.205473 -0.978663 1795.23 141.92)" fill="#D9E5FF"/>
<ellipse cx="1331.54" cy="30.3559" rx="4.38736" ry="3.70256" transform="rotate(90 1331.54 30.3559)" fill="#0053FF"/>
<ellipse cx="1184.67" cy="45.7123" rx="4.38736" ry="3.70256" transform="rotate(90 1184.67 45.7123)" fill="#0053FF"/>
<ellipse cx="1312.82" cy="160.033" rx="4.38736" ry="3.70256" transform="rotate(90 1312.82 160.033)" fill="#0053FF"/>
<ellipse cx="1214.9" cy="150.161" rx="4.75298" ry="3.70256" transform="rotate(90 1214.9 150.161)" fill="#0053FF"/>
<ellipse cx="1154.43" cy="4.76188" rx="4.38736" ry="3.70256" transform="rotate(90 1154.43 4.76188)" fill="#0053FF"/>
<ellipse cx="1459.7" cy="431.33" rx="4.38736" ry="3.70256" transform="rotate(90 1459.7 431.33)" fill="#0053FF"/>
<ellipse cx="1358.9" cy="272.646" rx="4.38736" ry="3.70256" transform="rotate(90 1358.9 272.646)" fill="#0053FF"/>
<ellipse cx="1119.87" cy="140.926" rx="4.04988" ry="3.70256" transform="rotate(90 1119.87 140.926)" fill="#0053FF"/>
<ellipse cx="1406.42" cy="180.508" rx="4.38736" ry="3.70256" transform="rotate(90 1406.42 180.508)" fill="#0053FF"/>
<ellipse cx="1302.74" cy="332.366" rx="4.38736" ry="3.70256" transform="rotate(90 1302.74 332.366)" fill="#0053FF"/>
<ellipse cx="1305.62" cy="368.198" rx="4.38736" ry="3.70256" transform="rotate(90 1305.62 368.198)" fill="#0053FF"/>
<ellipse cx="1265.3" cy="353.207" rx="4.75298" ry="3.70256" transform="rotate(90 1265.3 353.207)" fill="#0053FF"/>
<ellipse cx="3.74591" cy="4.35041" rx="3.74591" ry="4.35041" transform="matrix(0.959189 0.282766 -0.205473 0.978663 1547 185.251)" fill="#0053FF"/>
<ellipse cx="3.74591" cy="4.35041" rx="3.74591" ry="4.35041" transform="matrix(0.959189 0.282766 -0.205473 0.978663 1523.94 356.883)" fill="#0053FF"/>
<ellipse cx="3.74591" cy="4.35041" rx="3.74591" ry="4.35041" transform="matrix(0.959189 0.282766 -0.205473 0.978663 1647.87 236.521)" fill="#0053FF"/>
<ellipse cx="3.74591" cy="4.35041" rx="3.74591" ry="4.35041" transform="matrix(0.959189 0.282766 -0.205473 0.978663 1616.81 347.345)" fill="#0053FF"/>
<ellipse cx="3.74591" cy="4.35041" rx="3.74591" ry="4.35041" transform="matrix(0.959189 0.282766 -0.205473 0.978663 1482.42 381.557)" fill="#0053FF"/>
<ellipse cx="3.74591" cy="4.35041" rx="3.74591" ry="4.35041" transform="matrix(0.959189 0.282766 -0.205473 0.978663 1905.63 134.08)" fill="#0053FF"/>
<ellipse cx="3.74591" cy="4.35041" rx="3.74591" ry="4.35041" transform="matrix(0.959189 0.282766 -0.205473 0.978663 1751.72 211.764)" fill="#0053FF"/>
<ellipse cx="3.74591" cy="4.35041" rx="3.74591" ry="4.35041" transform="matrix(0.959189 0.282766 -0.205473 0.978663 1586.36 455.057)" fill="#0053FF"/>
<ellipse cx="3.74591" cy="4.35041" rx="3.74591" ry="4.35041" transform="matrix(0.959189 0.282766 -0.205473 0.978663 1687.49 134.376)" fill="#0053FF"/>
<ellipse cx="3.74591" cy="4.35041" rx="3.74591" ry="4.35041" transform="matrix(0.959189 0.282766 -0.205473 0.978663 1787.24 289.913)" fill="#0053FF"/>
<ellipse cx="3.74591" cy="4.35041" rx="3.74591" ry="4.35041" transform="matrix(0.959189 0.282766 -0.205473 0.978663 1817.18 295.664)" fill="#0053FF"/>
<ellipse cx="3.74591" cy="4.35041" rx="3.74591" ry="4.35041" transform="matrix(0.959189 0.282766 -0.205473 0.978663 1795.23 338.413)" fill="#0053FF"/>
<ellipse cx="7.40512" cy="8.77473" rx="7.40512" ry="8.77473" transform="matrix(1 0 0 -1 1833.46 60.094)" fill="#D9E5FF"/>
<ellipse cx="7.40512" cy="8.77473" rx="7.40512" ry="8.77473" transform="matrix(1 0 0 -1 1870.9 148.82)" fill="#D9E5FF"/>
<ellipse cx="7.40512" cy="8.77473" rx="7.40512" ry="8.77473" transform="matrix(1 0 0 -1 1601.63 92.5132)" fill="#D9E5FF"/>
<ellipse cx="947.692" cy="465.944" rx="7.40512" ry="8.77473" transform="rotate(180 947.692 465.944)" fill="#D9E5FF"/>
<ellipse cx="1080.17" cy="346.504" rx="7.40512" ry="8.77473" transform="rotate(180 1080.17 346.504)" fill="#D9E5FF"/>
<ellipse cx="917.452" cy="259.484" rx="7.40512" ry="8.77473" transform="rotate(180 917.452 259.484)" fill="#D9E5FF"/>
<ellipse cx="1029.77" cy="279.96" rx="7.40512" ry="8.77473" transform="rotate(180 1029.77 279.96)" fill="#D9E5FF"/>
<ellipse cx="999.529" cy="283.372" rx="7.40512" ry="8.77473" transform="rotate(180 999.529 283.372)" fill="#D9E5FF"/>
<ellipse cx="1012.49" cy="235.597" rx="7.40512" ry="8.77473" transform="rotate(180 1012.49 235.597)" fill="#D9E5FF"/>
<ellipse cx="1004.26" cy="44.4941" rx="8.77473" ry="7.40512" transform="rotate(-90 1004.26 44.4941)" fill="#D9E5FF"/>
<ellipse cx="1057.54" cy="295.316" rx="8.77473" ry="7.40512" transform="rotate(-90 1057.54 295.316)" fill="#D9E5FF"/>
<ellipse cx="7.49183" cy="8.70082" rx="7.49183" ry="8.70082" transform="matrix(-0.959189 -0.282766 0.205473 -0.978663 913.391 295.083)" fill="#D9E5FF"/>
<ellipse cx="7.49183" cy="8.70082" rx="7.49183" ry="8.70082" transform="matrix(-0.959189 -0.282766 0.205473 -0.978663 936.444 123.45)" fill="#D9E5FF"/>
<ellipse cx="7.49183" cy="8.70082" rx="7.49183" ry="8.70082" transform="matrix(-0.959189 -0.282766 0.205473 -0.978663 843.575 132.988)" fill="#D9E5FF"/>
<ellipse cx="7.49183" cy="8.70082" rx="7.49183" ry="8.70082" transform="matrix(-0.959189 -0.282766 0.205473 -0.978663 977.972 98.7764)" fill="#D9E5FF"/>
<ellipse cx="7.49183" cy="8.70082" rx="7.49183" ry="8.70082" transform="matrix(-0.959189 -0.282766 0.205473 -0.978663 874.023 25.064)" fill="#D9E5FF"/>
<ellipse cx="4.04988" cy="3.70256" rx="4.04988" ry="3.70256" transform="matrix(3.68887e-08 1 1 -5.1796e-08 996.855 426.943)" fill="#0053FF"/>
<ellipse cx="4.38736" cy="3.70256" rx="4.38736" ry="3.70256" transform="matrix(3.68887e-08 1 1 -5.1796e-08 1050.13 176.121)" fill="#0053FF"/>
<ellipse cx="3.74591" cy="4.35041" rx="3.74591" ry="4.35041" transform="matrix(-0.959189 0.282766 0.205473 0.978663 913.391 185.251)" fill="#0053FF"/>
<ellipse cx="3.74591" cy="4.35041" rx="3.74591" ry="4.35041" transform="matrix(-0.959189 0.282766 0.205473 0.978663 936.444 356.883)" fill="#0053FF"/>
<ellipse cx="3.74591" cy="4.35041" rx="3.74591" ry="4.35041" transform="matrix(-0.959189 0.282766 0.205473 0.978663 812.52 236.521)" fill="#0053FF"/>
<ellipse cx="3.74591" cy="4.35041" rx="3.74591" ry="4.35041" transform="matrix(-0.959189 0.282766 0.205473 0.978663 843.575 347.345)" fill="#0053FF"/>
<ellipse cx="3.74591" cy="4.35041" rx="3.74591" ry="4.35041" transform="matrix(-0.959189 0.282766 0.205473 0.978663 977.972 381.557)" fill="#0053FF"/>
<ellipse cx="3.74591" cy="4.35041" rx="3.74591" ry="4.35041" transform="matrix(-0.959189 0.282766 0.205473 0.978663 874.023 455.057)" fill="#0053FF"/>
<ellipse cx="851.214" cy="83.7385" rx="7.40512" ry="8.77473" transform="rotate(180 851.214 83.7385)" fill="#D9E5FF"/>
<ellipse cx="7.40512" cy="8.77473" rx="7.40512" ry="8.77473" transform="matrix(1 0 0 -1 1790.27 346.748)" fill="#D9E5FF"/>
</svg>
