<svg width="19" height="24" viewBox="0 0 19 24" fill="none" xmlns="http://www.w3.org/2000/svg">
<path d="M0 9.29032C0 4.15942 4.15942 0 9.29032 0C14.4213 0 18.5807 4.15942 18.5807 9.29032V22.5883C18.5807 23.368 17.9486 24 17.1688 24H1.41177C0.632072 24 0 23.368 0 22.5883V9.29032Z" fill="white"/>
<path fill-rule="evenodd" clip-rule="evenodd" d="M17.4768 22.8468V9.3174C17.4768 4.78293 13.8117 1.10702 9.29032 1.10702C4.76903 1.10702 1.1038 4.78293 1.1038 9.3174V22.8468C1.1038 22.8724 1.12439 22.893 1.14979 22.893H17.4309C17.4563 22.893 17.4768 22.8724 17.4768 22.8468ZM9.29032 0C4.15942 0 0 4.17154 0 9.3174V22.8468C0 23.4837 0.514779 24 1.14979 24H17.4309C18.0659 24 18.5807 23.4837 18.5807 22.8468V9.3174C18.5807 4.17154 14.4213 0 9.29032 0Z" fill="white"/>
</svg>
