<svg width="76" height="76" viewBox="0 0 76 76" fill="none" xmlns="http://www.w3.org/2000/svg">
<g clip-path="url(#clip0_3444_3117)">
<path d="M28.5644 2.89274C29.5647 5.30794 37.9361 37.8935 37.9361 37.8935C37.9361 37.8935 20.8124 8.93442 19.8121 6.51606C19.5568 5.93891 19.4196 5.31532 19.408 4.68436C19.3964 4.05233 19.5114 3.42559 19.7467 2.83893C19.981 2.25228 20.3313 1.71944 20.7755 1.26995C21.2197 0.820468 21.7494 0.464889 22.3328 0.223264C22.9163 -0.0183609 23.542 -0.141811 24.174 -0.137591C24.8061 -0.13337 25.4297 -0.00358903 26.011 0.245422C26.5914 0.494433 27.1168 0.856342 27.5547 1.3111C27.9936 1.76586 28.3365 2.30293 28.5644 2.89274Z" fill="black"/>
<path d="M19.9609 6.83597C20.5128 7.87844 21.4328 8.67717 22.5418 9.07707C23.6507 9.47696 24.8694 9.44847 25.9593 8.99793C27.0482 8.54739 27.9314 7.70645 28.4336 6.63972C28.9359 5.57298 29.0234 4.35747 28.6774 3.23059C28.6309 3.07654 28.5771 2.9246 28.5138 2.77688C28.4537 2.62811 28.3851 2.48145 28.3081 2.34111C27.7488 1.31236 26.8298 0.527345 25.7262 0.136947C24.6225 -0.253451 23.4133 -0.221797 22.3318 0.225578C21.2503 0.674008 20.3735 1.50651 19.8691 2.56269C19.3648 3.61888 19.2698 4.82489 19.6022 5.94755C19.6475 6.1016 19.7024 6.25354 19.7657 6.40126C19.8259 6.55003 19.8966 6.69564 19.9715 6.83703H19.9609V6.83597Z" fill="#B3B3B3"/>
<path d="M47.3438 72.9367C46.3436 70.5215 37.9722 37.9316 37.9722 37.9316C37.9722 37.9316 55.0959 66.8939 56.0993 69.3123C56.5794 70.4729 56.5794 71.7771 56.0983 72.9388C55.6171 74.0994 54.6949 75.0216 53.5343 75.5017C52.3736 75.9818 51.0695 75.9818 49.9078 75.5006C48.7472 75.0195 47.825 74.0973 47.3449 72.9367H47.3438Z" fill="black"/>
<path d="M55.8544 68.8449C55.2984 67.8119 54.3783 67.0227 53.2725 66.6291C52.1667 66.2356 50.9555 66.2662 49.8708 66.7157C48.7872 67.1641 47.9082 67.9998 47.4039 69.0591C46.9006 70.1185 46.8077 71.3276 47.1443 72.4514C47.1908 72.6044 47.2435 72.7563 47.3037 72.9051C47.3649 73.0538 47.4345 73.2005 47.5126 73.3408C48.0686 74.3738 48.9887 75.163 50.0945 75.5566C51.2003 75.9502 52.4115 75.9196 53.4962 75.4711C54.5798 75.0227 55.4598 74.187 55.9631 73.1277C56.4664 72.0683 56.5593 70.8592 56.2227 69.7354C56.1762 69.5825 56.1235 69.4305 56.0633 69.2817C56.0022 69.133 55.9325 68.9863 55.8544 68.846V68.8449Z" fill="#B3B3B3"/>
<path d="M72.9768 28.5598C70.5584 29.5633 37.9707 37.9315 37.9707 37.9315C37.9707 37.9315 66.934 20.8088 69.3524 19.8086C70.5057 19.3633 71.7887 19.3855 72.9251 19.8729C74.0614 20.3604 74.9636 21.272 75.4363 22.4148C75.909 23.5575 75.9164 24.8405 75.4574 25.9885C74.9973 27.1365 74.1068 28.0597 72.9757 28.5598H72.9768Z" fill="black"/>
<path d="M68.879 19.9839C67.8502 20.5421 67.0652 21.4621 66.6748 22.5658C66.2844 23.6695 66.316 24.8787 66.7634 25.9591C67.2118 27.0406 68.0443 27.9174 69.1005 28.4218C70.1567 28.9261 71.3627 29.0211 72.4854 28.6887C72.6394 28.6423 72.7914 28.5885 72.9391 28.5252C73.0879 28.465 73.2335 28.3944 73.3749 28.3194C74.4078 27.7623 75.1971 26.8433 75.5906 25.7375C75.9842 24.6328 75.9536 23.4205 75.5041 22.3358C75.0557 21.2522 74.22 20.3733 73.1607 19.87C72.1003 19.3667 70.8921 19.2738 69.7674 19.6104C69.6133 19.6558 69.4614 19.7106 69.3137 19.7739C69.1607 19.8372 69.0161 19.9048 68.8779 19.9797V19.9829L68.879 19.9839Z" fill="#B3B3B3"/>
<path d="M2.9647 47.3075C5.38306 46.304 37.9708 37.9326 37.9708 37.9326C37.9708 37.9326 9.00743 55.0595 6.59224 56.0587C5.43687 56.5156 4.1475 56.4987 3.00374 56.0144C1.85998 55.5301 0.951509 54.6142 0.475645 53.4663C-0.000218801 52.3183 -0.00549442 51.03 0.459818 49.8778C0.925131 48.7255 1.82516 47.8023 2.9647 47.3075Z" fill="black"/>
<path d="M6.99747 55.8138C8.02727 55.2556 8.8144 54.3356 9.20585 53.2308C9.59731 52.1261 9.56565 50.9159 9.11617 49.8344C8.66774 48.7518 7.83313 47.875 6.77483 47.3706C5.71654 46.8673 4.50947 46.7734 3.38681 47.109C3.2317 47.1554 3.07871 47.2092 2.92888 47.2725C2.78011 47.3327 2.6345 47.4033 2.49311 47.4783C1.46014 48.0343 0.670902 48.9544 0.277338 50.0602C-0.116226 51.1649 -0.0856269 52.3772 0.363859 53.4609C0.812289 54.5445 1.64795 55.4234 2.7073 55.9277C3.76665 56.431 4.97583 56.5239 6.09955 56.1873C6.25254 56.1409 6.40448 56.085 6.55326 56.0238C6.70203 55.9626 6.84764 55.8929 6.98902 55.818L6.99641 55.8148L6.99747 55.8138Z" fill="#B3B3B3"/>
<path d="M56.0978 6.55408C55.0944 8.97244 37.9707 37.9315 37.9707 37.9315C37.9707 37.9315 46.3432 5.3449 47.3424 2.93076C47.8225 1.77012 48.7457 0.846877 49.9053 0.365737C51.0659 -0.115402 52.3701 -0.115402 53.5318 0.365737C54.6924 0.845822 55.6157 1.76801 56.0957 2.92865C56.5769 4.08929 56.5769 5.39343 56.0968 6.55408H56.0978Z" fill="black"/>
<path d="M47.1451 3.35388C46.8085 4.4776 46.9003 5.68678 47.4047 6.74613C47.908 7.80548 48.7869 8.64114 49.8716 9.08957C50.9552 9.538 52.1675 9.5686 53.2733 9.17504C54.3791 8.78148 55.2992 7.99224 55.8552 6.95927C55.9333 6.81788 56.0008 6.67227 56.0641 6.5235C56.1274 6.37472 56.1781 6.22173 56.2235 6.06979C56.56 4.94608 56.4683 3.7369 55.9639 2.67755C55.4606 1.6182 54.5817 0.782532 53.497 0.334101C52.4134 -0.114329 51.201 -0.144928 50.0953 0.248636C48.9895 0.6422 48.0694 1.43144 47.5134 2.46441C47.4353 2.6058 47.3656 2.75141 47.3044 2.90018C47.2443 3.04895 47.1905 3.20195 47.1451 3.35388Z" fill="#B3B3B3"/>
<path d="M19.848 69.3123C20.8482 66.8939 37.972 37.9316 37.972 37.9316C37.972 37.9316 29.5995 70.5215 28.6003 72.9367C28.1002 74.0678 27.1769 74.9583 26.0289 75.4183C24.881 75.8784 23.5979 75.8699 22.4552 75.3972C21.3125 74.9245 20.3998 74.0224 19.9134 72.886C19.4259 71.7486 19.4027 70.4666 19.849 69.3133L19.848 69.3123Z" fill="black"/>
<path d="M28.7374 72.4441C29.0698 71.3214 28.9748 70.1154 28.4705 69.0592C27.9661 68.003 27.0893 67.1705 26.0078 66.7221C24.9263 66.2747 23.7171 66.242 22.6134 66.6335C21.5098 67.0239 20.5897 67.8089 20.0315 68.8376C19.9545 68.979 19.8859 69.1246 19.8258 69.2734C19.7635 69.4211 19.7087 69.5731 19.6622 69.7271C19.3299 70.8498 19.4248 72.0547 19.9292 73.112C20.4335 74.1681 21.3103 75.0006 22.3919 75.4491C23.4734 75.8965 24.6825 75.9292 25.7862 75.5388C26.8899 75.1484 27.81 74.3623 28.3681 73.3346C28.4451 73.1932 28.5137 73.0476 28.5739 72.8988C28.6361 72.7511 28.691 72.5992 28.7374 72.4451V72.4441Z" fill="#B3B3B3"/>
<path d="M69.3539 56.0587C66.9355 55.0584 37.9722 37.9326 37.9722 37.9326C37.9722 37.9326 70.5599 46.304 72.9782 47.3075C73.5681 47.5354 74.1051 47.8783 74.5599 48.3162C75.0146 48.7551 75.3766 49.2795 75.6256 49.8609C75.8746 50.4412 76.0044 51.0658 76.0086 51.6979C76.0117 52.3299 75.8893 52.9556 75.6477 53.5391C75.4061 54.1225 75.0505 54.6522 74.601 55.0964C74.1515 55.5406 73.6187 55.8899 73.0321 56.1252C72.4454 56.3594 71.8186 56.4744 71.1866 56.4639C70.5546 56.4523 69.9321 56.3151 69.3549 56.0598L69.3539 56.0587Z" fill="black"/>
<path d="M72.5752 47.1556C71.4525 46.8233 70.2465 46.9182 69.1903 47.4226C68.1341 47.9269 67.3016 48.8038 66.8532 49.8853C66.4058 50.9668 66.3731 52.176 66.7646 53.2786C67.155 54.3822 67.94 55.3023 68.9687 55.8605C69.107 55.9354 69.2526 56.0019 69.4045 56.0662C69.5575 56.1295 69.7063 56.1833 69.8582 56.2298C70.9819 56.5663 72.1911 56.4746 73.2515 55.9702C74.3109 55.4669 75.1465 54.588 75.595 53.5033C76.0434 52.4197 76.075 51.2073 75.6815 50.1026C75.2879 48.9979 74.4987 48.0768 73.4657 47.5207C73.3243 47.4458 73.1787 47.3751 73.0299 47.315C72.8822 47.2527 72.7303 47.1978 72.5762 47.1514V47.1546L72.5752 47.1556Z" fill="#B3B3B3"/>
<path d="M6.59224 19.8086C9.00743 20.8089 37.9708 37.9315 37.9708 37.9315C37.9708 37.9315 5.38306 29.5633 2.9647 28.5598C1.82516 28.065 0.925131 27.1417 0.459818 25.9895C-0.00549442 24.8373 -0.000218801 23.549 0.475645 22.401C0.951509 21.2531 1.85892 20.3383 3.00374 19.8529C4.1475 19.3675 5.43687 19.3517 6.59224 19.8086Z" fill="black"/>
<path d="M3.38679 28.6887C4.50945 29.0232 5.71652 28.9303 6.77481 28.4271C7.83311 27.9238 8.66666 27.0459 9.11615 25.9633C9.56458 24.8808 9.59623 23.6705 9.20584 22.5669C8.81438 21.4632 8.02726 20.5421 6.99745 19.9839C6.85606 19.909 6.71045 19.8425 6.56168 19.7781C6.4129 19.7159 6.26202 19.661 6.10797 19.6146C4.98426 19.278 3.77508 19.3698 2.71573 19.8742C1.65638 20.3785 0.820712 21.2564 0.372282 22.3411C-0.076149 23.4257 -0.107803 24.637 0.285761 25.7417C0.679325 26.8475 1.46856 27.7676 2.50154 28.3236C2.64187 28.4007 2.78642 28.4682 2.93414 28.5294C3.08397 28.5917 3.23591 28.6465 3.39207 28.6929L3.3889 28.6898L3.38679 28.6887Z" fill="#B3B3B3"/>
<path d="M21.2102 16.0937C22.6283 17.5118 37.9372 37.8969 37.9372 37.8969C37.9372 37.8969 17.5331 22.5754 16.1329 21.1752C15.4724 20.4989 15.1042 19.5894 15.1094 18.645C15.1147 17.7007 15.4924 16.7943 16.1603 16.1254C16.8282 15.4564 17.7335 15.0787 18.6789 15.0723C19.6243 15.066 20.5339 15.4332 21.2102 16.0937Z" fill="#B3B3B3"/>
<path d="M16.405 21.4198C17.095 21.9801 17.9676 22.265 18.855 22.2196C19.7423 22.1742 20.5812 21.8007 21.21 21.1719C21.8389 20.5441 22.2113 19.7042 22.2578 18.8168C22.3031 17.9295 22.0183 17.0558 21.458 16.3668C21.3799 16.2718 21.2966 16.18 21.21 16.0935C21.1256 16.0059 21.0359 15.9247 20.941 15.8487C20.2509 15.2853 19.3773 14.9972 18.4867 15.0416C17.5973 15.0859 16.7553 15.4594 16.1254 16.0893C15.4954 16.7192 15.123 17.5612 15.0787 18.4507C15.0344 19.3402 15.3224 20.2149 15.8869 20.9039C15.9629 20.9999 16.0441 21.0906 16.1317 21.1771C16.2172 21.2626 16.3089 21.3439 16.4007 21.4219L16.4039 21.4188L16.405 21.4198Z" fill="white"/>
<path d="M54.6977 59.7391C53.2796 58.321 37.9707 37.9316 37.9707 37.9316C37.9707 37.9316 58.3748 53.2564 59.7781 54.6576C60.1116 54.991 60.3764 55.3877 60.5568 55.8235C60.7373 56.2593 60.8301 56.7267 60.8301 57.1983C60.8301 57.67 60.7373 58.1374 60.5568 58.5732C60.3764 59.0089 60.1116 59.4057 59.7781 59.7391C59.4447 60.0725 59.048 60.3373 58.6122 60.5178C58.1765 60.6982 57.709 60.791 57.2374 60.791C56.7657 60.791 56.2983 60.6982 55.8626 60.5178C55.4268 60.3373 55.0311 60.0725 54.6966 59.7391H54.6977Z" fill="#B3B3B3"/>
<path d="M59.4713 54.3777C58.7823 53.8132 57.9076 53.5252 57.0181 53.5685C56.1286 53.6128 55.2866 53.9863 54.6567 54.6151C54.0268 55.2451 53.6533 56.086 53.609 56.9755C53.5646 57.865 53.8516 58.7397 54.4161 59.4297C54.5691 59.6207 54.7432 59.7937 54.9342 59.9478C55.6243 60.5112 56.4979 60.7993 57.3884 60.755C58.2779 60.7106 59.1199 60.3361 59.7498 59.7062C60.3797 59.0762 60.7522 58.2342 60.7965 57.3448C60.8408 56.4553 60.5528 55.5806 59.9883 54.8916C59.9102 54.7956 59.829 54.7069 59.7435 54.6183C59.658 54.5297 59.5662 54.4516 59.4702 54.3735L59.4734 54.3767L59.4713 54.3777Z" fill="white"/>
<path d="M59.7796 21.2099C58.3615 22.628 37.9722 37.9316 37.9722 37.9316C37.9722 37.9316 53.2948 17.5328 54.6992 16.1284C55.0326 15.795 55.4293 15.5301 55.8651 15.3497C56.3008 15.1693 56.7683 15.0764 57.2399 15.0764C57.7116 15.0764 58.179 15.1693 58.6147 15.3497C59.0505 15.5301 59.4462 15.795 59.7807 16.1284C60.1151 16.4618 60.3789 16.8585 60.5593 17.2943C60.7398 17.7301 60.8326 18.1975 60.8326 18.6691C60.8326 19.1408 60.7398 19.6082 60.5593 20.044C60.3789 20.4797 60.1141 20.8765 59.7807 21.2099H59.7796Z" fill="#B3B3B3"/>
<path d="M54.4142 16.367C53.8507 17.057 53.5627 17.9307 53.607 18.8212C53.6513 19.7118 54.0248 20.5527 54.6547 21.1816C55.2846 21.8115 56.1266 22.1839 57.0161 22.2282C57.9056 22.2726 58.7803 21.9845 59.4693 21.42C59.5653 21.3419 59.6539 21.2607 59.7426 21.1752C59.8312 21.0898 59.9093 20.9948 59.9874 20.9019C60.5519 20.2129 60.8399 19.3382 60.7956 18.4488C60.7513 17.5593 60.3788 16.7173 59.7489 16.0874C59.119 15.4575 58.278 15.084 57.3875 15.0386C56.497 14.9932 55.6233 15.2813 54.9333 15.8458C54.7423 15.9988 54.5693 16.1728 54.4152 16.3638L54.412 16.367H54.4142Z" fill="white"/>
<path d="M16.1666 54.6576C17.5847 53.2395 37.9709 37.9316 37.9709 37.9316C37.9709 37.9316 22.6483 58.3347 21.2439 59.7391C20.5675 60.3996 19.658 60.7668 18.7126 60.7604C17.7672 60.7541 16.8619 60.3764 16.194 59.7074C15.5261 59.0385 15.1484 58.1342 15.1431 57.1888C15.1378 56.2434 15.5061 55.3339 16.1666 54.6586V54.6576Z" fill="#B3B3B3"/>
<path d="M21.4582 59.4307C22.0184 58.7407 22.3033 57.8681 22.2579 56.9807C22.2126 56.0934 21.8391 55.2545 21.2102 54.6257C20.5813 53.9968 19.7425 53.6244 18.8552 53.5779C17.9678 53.5326 17.0941 53.8174 16.4051 54.3777C16.3133 54.4558 16.2205 54.537 16.1361 54.6225C16.0485 54.708 15.9673 54.7998 15.8913 54.8958C15.3268 55.5848 15.0387 56.4595 15.0831 57.349C15.1274 58.2384 15.4998 59.0804 16.1298 59.7104C16.7597 60.3403 17.6006 60.7138 18.4901 60.7592C19.3806 60.8035 20.2543 60.5165 20.9443 59.952C21.0393 59.876 21.129 59.7937 21.2134 59.7072C21.3009 59.6207 21.3832 59.5289 21.4613 59.4339L21.4582 59.4307Z" fill="white"/>
<path d="M41.5637 10.6893C41.5637 12.6719 37.972 37.9317 37.972 37.9317C37.972 37.9317 34.3804 12.6709 34.3804 10.6893C34.3804 9.73654 34.7592 8.82279 35.4323 8.14962C36.1066 7.47645 37.0193 7.09766 37.972 7.09766C38.9248 7.09766 39.8386 7.47645 40.5117 8.14962C41.186 8.82279 41.5637 9.73654 41.5637 10.6893Z" fill="#B3B3B3"/>
<path d="M34.3613 11.0226C34.45 11.9089 34.8646 12.7308 35.5251 13.3291C36.1856 13.9273 37.0445 14.2576 37.9361 14.2576C38.8277 14.2576 39.6866 13.9263 40.3471 13.3291C41.0076 12.7308 41.4223 11.9089 41.5109 11.0226C41.5352 10.7799 41.5352 10.5351 41.5109 10.2924C41.4223 9.40609 41.0076 8.58415 40.3471 7.98589C39.6866 7.38763 38.8277 7.05737 37.9361 7.05737C37.0445 7.05737 36.1856 7.38868 35.5251 7.98589C34.8646 8.58415 34.45 9.40609 34.3613 10.2924V11.0226Z" fill="white"/>
<path d="M34.3794 65.1783C34.3794 63.1957 37.9711 37.9316 37.9711 37.9316C37.9711 37.9316 41.5627 63.1957 41.5627 65.1783C41.5627 66.1311 41.1839 67.0448 40.5108 67.718C39.8365 68.3911 38.9238 68.7699 37.9711 68.7699C37.0183 68.7699 36.1045 68.3911 35.4314 67.718C34.7571 67.0437 34.3794 66.13 34.3794 65.1783Z" fill="#B3B3B3"/>
<path d="M41.5036 64.7741C41.4149 63.8878 41.0003 63.0658 40.3398 62.4676C39.6792 61.8693 38.8204 61.5391 37.9288 61.5391C37.0372 61.5391 36.1783 61.8704 35.5178 62.4676C34.8573 63.0658 34.4426 63.8878 34.354 64.7741V65.4831C34.4426 66.3695 34.8573 67.1914 35.5178 67.7897C36.1783 68.3879 37.0372 68.7182 37.9288 68.7182C38.8204 68.7182 39.6792 68.3869 40.3398 67.7897C41.0003 67.1914 41.4149 66.3695 41.5036 65.4831C41.5278 65.2405 41.5278 64.9957 41.5036 64.753V64.7741Z" fill="white"/>
<path d="M65.2184 41.5276C63.2326 41.5276 37.9707 37.9317 37.9707 37.9317C37.9707 37.9317 63.2326 34.3401 65.2184 34.3401C66.1522 34.3696 67.0374 34.7611 67.6874 35.4311C68.3374 36.1022 68.7014 36.999 68.7014 37.9339C68.7014 38.8687 68.3384 39.7656 67.6874 40.4356C67.0374 41.1066 66.1522 41.4981 65.2184 41.5276Z" fill="#B3B3B3"/>
<path d="M64.8143 34.3263C63.9312 34.4181 63.1135 34.8349 62.5194 35.4943C61.9254 36.1538 61.5962 37.0106 61.5962 37.8979C61.5962 38.7853 61.9254 39.642 62.5194 40.3015C63.1135 40.961 63.9312 41.3777 64.8143 41.4695C65.057 41.498 65.3018 41.498 65.5445 41.4695C66.4276 41.3767 67.2454 40.961 67.8394 40.3015C68.4334 39.642 68.7626 38.7853 68.7626 37.8979C68.7626 37.0106 68.4334 36.1538 67.8394 35.4943C67.2454 34.8349 66.4276 34.4181 65.5445 34.3263C65.3018 34.2978 65.057 34.2978 64.8143 34.3263Z" fill="white"/>
<path d="M10.7271 34.3401C12.7097 34.3401 37.9717 37.9317 37.9717 37.9317C37.9717 37.9317 12.7097 41.5276 10.7271 41.5276C9.79334 41.4981 8.90808 41.1066 8.25812 40.4356C7.60816 39.7656 7.24414 38.8677 7.24414 37.9339C7.24414 37.0001 7.60711 36.1022 8.25812 35.4311C8.90808 34.7611 9.79334 34.3686 10.7271 34.3401Z" fill="#B3B3B3"/>
<path d="M11.0575 41.4715C11.9406 41.3797 12.7584 40.9629 13.3524 40.3035C13.9464 39.644 14.2756 38.7872 14.2756 37.8999C14.2756 37.0125 13.9464 36.1557 13.3524 35.4963C12.7584 34.8368 11.9406 34.42 11.0575 34.3283C10.8138 34.2998 10.5669 34.2998 10.3231 34.3283C9.43998 34.4211 8.62226 34.8368 8.02822 35.4963C7.43418 36.1557 7.10498 37.0125 7.10498 37.8999C7.10498 38.7872 7.43418 39.644 8.02822 40.3035C8.62226 40.9629 9.43998 41.3797 10.3231 41.4715C10.4413 41.4852 10.5595 41.4926 10.6777 41.4926C10.7958 41.4926 10.9151 41.4852 11.0322 41.4715H11.0575Z" fill="white"/>
</g>
<defs>
<clipPath id="clip0_3444_3117">
<rect width="76" height="76" fill="white"/>
</clipPath>
</defs>
</svg>
