<svg width="48" height="48" viewBox="0 0 48 48" fill="none" xmlns="http://www.w3.org/2000/svg">
<path d="M6.00215 23.9988H0.00244141C0.00244141 37.2534 10.7467 47.9999 24.0013 47.9999C37.2559 47.9999 48.0001 37.2557 48.0001 24.0011H42.0004" fill="black"/>
<path d="M41.998 23.9988H47.9977C47.9977 10.7443 37.2534 0 23.9988 0C10.7443 0 0 10.7443 0 23.9988H5.99971" fill="white"/>
<path d="M11.9995 23.9989C11.9995 17.3728 17.3728 11.9995 23.9989 11.9995C30.6251 11.9995 35.9984 17.3728 35.9984 23.9989" fill="black"/>
<path d="M36.0005 30.0008V23.9988H29.9985V30.0008H36.0005Z" fill="white"/>
<path d="M30.001 36.0006V29.9985H23.9989V36.0006H30.001Z" fill="white"/>
<path d="M24.001 36.0006V29.9985H17.9989V36.0006H24.001Z" fill="white"/>
<path d="M18.0015 30.0008V23.9988H11.9994V30.0008H18.0015Z" fill="white"/>
<path d="M18.0015 23.9987C18.0015 20.6857 20.6881 17.999 24.0012 17.999C27.3142 17.999 30.0009 20.6857 30.0009 23.9987" fill="white"/>
</svg>
