<svg width="166" height="32" viewBox="0 0 166 32" fill="none" xmlns="http://www.w3.org/2000/svg">
<path d="M61.7916 6.28839H69.2668L74.3149 24.7627H74.8391L79.9334 6.28839H87.4571L79.4092 31.3836H69.8857L61.7916 6.28839Z" fill="white"/>
<path d="M89.122 18.8578C89.122 11.3826 94.6944 5.66707 102.502 5.66707C110.31 5.66707 115.836 11.4288 115.836 18.8578C115.836 26.2868 110.312 32 102.502 32C94.692 32 89.122 26.2868 89.122 18.8578ZM108.788 18.8578C108.788 15.096 106.218 12.2855 102.502 12.2855C98.7863 12.2855 96.17 15.096 96.17 18.8578C96.17 22.6196 98.7887 25.3816 102.502 25.3816C106.215 25.3816 108.788 22.5711 108.788 18.8578Z" fill="white"/>
<path d="M123.073 23.6196V12.4287H118.93V6.28593H123.549V0H130.024V6.28593H136.691V12.4287H130.024V23.571C130.024 24.6656 130.454 25.1413 131.594 25.1413H136.405V31.3787H130.929C125.881 31.3787 123.073 29.0924 123.073 23.6171V23.6196Z" fill="white"/>
<path d="M140.264 18.8578C140.264 11.0016 146.074 5.66707 153.073 5.66707C160.786 5.66707 165.597 11.3802 165.597 18.8093V20.5713H147.406C147.455 23.8574 149.882 25.8573 153.168 25.8573C155.454 25.8573 157.644 24.952 158.597 22.8575L164.789 24.287C162.978 29.9055 158.122 32 153.265 32C145.598 32 140.266 26.4276 140.266 18.8578H140.264ZM158.597 15.9527C158.265 13.4286 156.027 11.4288 153.073 11.4288C149.836 11.4288 147.787 13.715 147.455 15.9527H158.597Z" fill="white"/>
<path d="M0.403076 18.8263H6.6793V12.5501H0.403076V18.8263Z" fill="white"/>
<path d="M19.2318 18.8263H25.508V12.5501H19.2318V18.8263Z" fill="white"/>
<path d="M0.403076 25.1049H6.6793V18.8286H0.403076V25.1049Z" fill="white"/>
<path d="M6.67939 31.3812H12.9556V25.1049L6.6793 25.1049L6.67939 31.3812Z" fill="white"/>
<path d="M12.9556 31.3812H19.2318V25.1049H12.9556V31.3812Z" fill="white"/>
<path d="M19.2318 25.1049L25.508 25.1049V18.8286H19.2318L19.2318 25.1049Z" fill="white"/>
<path d="M6.67939 12.5525H12.9556V6.27627H6.67939V12.5525Z" fill="white"/>
<path d="M12.9556 12.5525H19.2318V6.27627H12.9556V12.5525Z" fill="white"/>
<path d="M31.7866 18.8263H38.0628V12.5501H31.7866V18.8263Z" fill="white"/>
<path d="M31.7866 12.5501H38.0628V6.27378H31.7866V12.5501Z" fill="white"/>
<path d="M50.6153 18.8263H56.8915V12.5501H50.6153V18.8263Z" fill="white"/>
<path d="M31.7866 25.1049H38.0628V18.8286H31.7866V25.1049Z" fill="white"/>
<path d="M31.7866 31.3812H38.0628V25.1049H31.7866V31.3812Z" fill="white"/>
<path d="M50.6153 25.1049H56.8915V18.8286H50.6153V25.1049Z" fill="white"/>
<path d="M50.6153 31.3812H56.8915V25.1049H50.6153V31.3812Z" fill="white"/>
<path d="M38.0628 18.8263H44.339V12.5501H38.0628V18.8263Z" fill="white"/>
<path d="M44.3391 12.5525H50.6153V6.27627H44.3391V12.5525Z" fill="white"/>
<path d="M50.6153 12.5525H56.8915V6.27627H50.6153V12.5525Z" fill="white"/>
</svg>
