<svg width="76" height="76" viewBox="0 0 76 76" fill="none" xmlns="http://www.w3.org/2000/svg">
<g clip-path="url(#clip0_3444_3169)">
<path d="M19.2113 0C16.6605 0 14.1345 0.502819 11.778 1.47825C9.42141 2.45475 7.28065 3.88552 5.47654 5.68855C3.67243 7.49158 2.24274 9.63342 1.26623 11.99C0.290804 14.3465 -0.212015 16.8714 -0.210936 19.4222H19.2113V0Z" fill="#B3B3B3"/>
<path d="M-0.210938 57.4221C-0.210938 59.862 0.291882 62.2781 1.26731 64.5322C2.24382 66.7864 3.67459 68.834 5.47762 70.5597C7.28065 72.2843 9.42249 73.6529 11.779 74.587C14.1356 75.52 16.6605 76.0009 19.2113 75.9999V57.4221H-0.210938Z" fill="#B3B3B3"/>
<path d="M75.7887 19.4222C75.7887 16.8714 75.3078 14.3455 74.3747 11.9889C73.4407 9.63235 72.0721 7.49159 70.3475 5.68748C68.6228 3.88337 66.5741 2.45368 64.32 1.47717C62.0659 0.501743 59.6508 -0.00107728 57.2109 1.73293e-06V19.4222H75.7887Z" fill="#B3B3B3"/>
<path d="M57.2109 75.9999C59.6508 75.9999 62.067 75.5189 64.3211 74.5859C66.5752 73.6519 68.6228 72.2833 70.3485 70.5587C72.0742 68.834 73.4417 66.7853 74.3758 64.5312C75.3088 62.2771 75.7897 59.862 75.7887 57.4221H57.2109V75.9999Z" fill="#B3B3B3"/>
<path d="M0.210938 38.4158C0.210938 40.9122 0.701771 43.3832 1.65599 45.6886C2.61022 47.995 4.00988 50.0902 5.77477 51.8551C7.53966 53.62 9.63388 55.0197 11.9392 55.9749C14.2445 56.9302 16.7156 57.4221 19.2109 57.4221V19.4221C14.1738 19.4221 9.34255 21.4224 5.77899 24.9849C2.21649 28.5463 0.213049 33.3776 0.210938 38.4158Z" fill="black"/>
<path d="M37.9317 19.1396L18.98 38.0913L37.9317 57.043L56.8833 38.0913L37.9317 19.1396Z" fill="white"/>
<path d="M75.7887 38.4285C75.7887 35.9321 75.3088 33.461 74.3758 31.1557C73.4428 28.8493 72.0742 26.754 70.3485 24.9891C68.6229 23.2242 66.5752 21.8246 64.3211 20.8693C62.067 19.914 59.6508 19.4221 57.2109 19.4221V57.4221C62.1361 57.4221 66.86 55.4218 70.3444 51.8593C73.8277 48.2979 75.7866 43.4666 75.7887 38.4285Z" fill="black"/>
<path d="M38.2046 75.9999C40.701 75.9999 43.172 75.52 45.4774 74.587C47.7838 73.6539 49.879 72.2854 51.6439 70.5597C53.4088 68.834 54.8085 66.7864 55.7638 64.5322C56.719 62.2781 57.2109 59.862 57.2109 57.4221H19.2109C19.2109 62.3473 21.2112 67.0712 24.7737 70.5556C28.3352 74.0389 33.1664 75.9978 38.2046 75.9999Z" fill="black"/>
<path d="M38.2173 0C35.7209 0 33.2498 0.501741 30.9445 1.47717C28.6381 2.4526 26.5428 3.88337 24.7779 5.68747C23.013 7.49158 21.6134 9.63235 20.6581 11.9889C19.7028 14.3455 19.2109 16.8714 19.2109 19.4222H57.2109C57.2109 14.2732 55.2107 9.33454 51.6482 5.69179C48.0867 2.05012 43.2554 0.00215802 38.2173 0Z" fill="black"/>
</g>
<defs>
<clipPath id="clip0_3444_3169">
<rect width="76" height="76" fill="white"/>
</clipPath>
</defs>
</svg>
