<svg width="76" height="76" viewBox="0 0 76 76" fill="none" xmlns="http://www.w3.org/2000/svg">
<g clip-path="url(#clip0_3444_3194)">
<path d="M15.126 14.8178V32.2746L0.00732422 17.52V0.0632324L15.126 14.8178Z" fill="white"/>
<path d="M15.126 32.2737H32.5859V14.8137H15.126V32.2737Z" fill="black"/>
<path d="M17.4673 0.0632324L32.586 14.8178H15.126L0.00732422 0.0632324H17.4673Z" fill="#B3B3B3"/>
<path d="M60.8887 14.8178V32.2746L76.0074 17.52V0.0632324L60.8887 14.8178Z" fill="black"/>
<path d="M60.8887 14.8167H43.4287V32.2766H60.8887V14.8167Z" fill="#B3B3B3"/>
<path d="M58.5507 0.0632324L43.4277 14.8178H60.8877L76.0075 0.0632324H58.5507Z" fill="white"/>
<path d="M15.126 61.3088V43.8489L0.00732422 58.6034V76.0634L15.126 61.3088Z" fill="white"/>
<path d="M15.126 61.3088H32.5859V43.8489H15.126V61.3088Z" fill="#B3B3B3"/>
<path d="M17.4673 76.0634L32.586 61.3088H15.126L0.00732422 76.0634H17.4673Z" fill="black"/>
<path d="M60.8887 61.3088V43.8489L76.0074 58.6034V76.0634L60.8887 61.3088Z" fill="white"/>
<path d="M60.8887 43.8499H43.4287V61.3098H60.8887V43.8499Z" fill="black"/>
<path d="M58.5507 76.0634L43.4277 61.3088H60.8877L76.0064 76.0634H58.5496H58.5507Z" fill="#B3B3B3"/>
</g>
<defs>
<clipPath id="clip0_3444_3194">
<rect width="76" height="76" fill="white"/>
</clipPath>
</defs>
</svg>
