<svg width="75" height="75" viewBox="0 0 75 75" fill="none" xmlns="http://www.w3.org/2000/svg">
<g clip-path="url(#clip0_3444_3154)">
<path d="M37.6416 0.0883789H0.141602V18.8384H37.6416V0.0883789Z" fill="black"/>
<path d="M75.1416 0.0883789H37.6416V18.8384H75.1416V0.0883789Z" fill="#B3B3B3"/>
<path d="M75.1416 18.8384H56.3916V37.5884H75.1416V18.8384Z" fill="white"/>
<path d="M75.1416 37.5884H37.6416V56.3384H75.1416V37.5884Z" fill="black"/>
<path d="M37.6416 37.5884H0.141602V56.3384H37.6416V37.5884Z" fill="#B3B3B3"/>
<path d="M18.8916 56.3384H0.141602V75.0884H18.8916V56.3384Z" fill="#B3B3B3"/>
<path d="M47.0166 75.0884C52.1943 75.0884 56.3916 70.891 56.3916 65.7134C56.3916 60.5357 52.1943 56.3384 47.0166 56.3384C41.8389 56.3384 37.6416 60.5357 37.6416 65.7134C37.6416 70.891 41.8389 75.0884 47.0166 75.0884Z" fill="black"/>
<path d="M65.624 75.0884C70.8017 75.0884 74.999 70.891 74.999 65.7134C74.999 60.5357 70.8017 56.3384 65.624 56.3384C60.4464 56.3384 56.249 60.5357 56.249 65.7134C56.249 70.891 60.4464 75.0884 65.624 75.0884Z" fill="#B3B3B3"/>
<path d="M28.2666 75.0884C33.4443 75.0884 37.6416 70.891 37.6416 65.7134C37.6416 60.5357 33.4443 56.3384 28.2666 56.3384C23.0889 56.3384 18.8916 60.5357 18.8916 65.7134C18.8916 70.891 23.0889 75.0884 28.2666 75.0884Z" fill="white"/>
</g>
<defs>
<clipPath id="clip0_3444_3154">
<rect width="75" height="75" fill="white"/>
</clipPath>
</defs>
</svg>
