<svg width="76" height="76" viewBox="0 0 76 76" fill="none" xmlns="http://www.w3.org/2000/svg">
<g clip-path="url(#clip0_3444_3106)">
<path d="M37.9999 60.162C25.7523 60.162 15.8269 50.2324 15.8269 37.989H7.88281C7.88281 54.6214 21.3675 68.1051 37.9989 68.1051C54.6302 68.1051 68.1149 54.6203 68.1149 37.989H60.1708C60.1708 50.2313 50.2412 60.162 37.9978 60.162H37.9999Z" fill="black"/>
<path d="M37.9999 44.2738C34.5261 44.2738 31.7151 41.4586 31.7151 37.989H23.771C23.771 45.8476 30.1413 52.2179 37.9999 52.2179C45.8585 52.2179 52.2288 45.8476 52.2288 37.989H44.2847C44.2847 41.4586 41.4695 44.2738 37.9999 44.2738Z" fill="white"/>
<path d="M7.94411 37.989C7.94411 21.3872 21.3982 7.93313 38 7.93313C54.6018 7.93313 68.0559 21.3872 68.0559 37.989H76C76 17.0035 58.9855 -0.0109863 38 -0.0109863C17.0145 -0.0109863 0 17.0035 0 37.989H7.94411Z" fill="white"/>
<path d="M7.94411 37.989C7.94411 54.5908 21.3982 68.0449 38 68.0449C54.6018 68.0449 68.0559 54.5908 68.0559 37.989H76C76 58.9745 58.9855 75.989 38 75.989C17.0145 75.989 0 58.9745 0 37.989H7.94411Z" fill="#B3B3B3"/>
<path d="M23.8312 37.989C23.8312 30.161 30.1761 23.8203 37.9999 23.8203C45.8237 23.8203 52.1686 30.1599 52.1686 37.989H60.1127C60.1127 25.7762 50.2127 15.8772 38.0009 15.8772C25.7892 15.8772 15.8892 25.7773 15.8892 37.989H23.8333H23.8312Z" fill="#B3B3B3"/>
<path d="M38 31.7644C34.561 31.7644 31.7754 34.55 31.7754 37.989H44.2246C44.2246 34.55 41.439 31.7644 38 31.7644Z" fill="black"/>
</g>
<defs>
<clipPath id="clip0_3444_3106">
<rect width="76" height="76" fill="white"/>
</clipPath>
</defs>
</svg>
