<svg width="76" height="76" viewBox="0 0 76 76" fill="none" xmlns="http://www.w3.org/2000/svg">
<g clip-path="url(#clip0_3444_3096)">
<path d="M45.1602 37.9368C45.1602 24.6177 75.9999 29.6131 75.9999 -0.0632324H0.00292969C0.00292969 29.6131 30.8426 24.6177 30.8426 37.9368C30.8426 51.2558 0.00292969 46.2604 0.00292969 75.9337H75.9999C75.9999 46.2604 45.1602 51.2558 45.1602 37.9368Z" fill="black"/>
<path d="M43.7282 37.9368C43.7282 24.6177 68.4 29.6131 68.4 -0.0632324H7.60303C7.60303 29.6131 32.2748 24.6177 32.2748 37.9368C32.2748 51.2558 7.60303 46.2604 7.60303 75.9337H68.4C68.4 46.2604 43.7282 51.2558 43.7282 37.9368Z" fill="white"/>
<path d="M42.2963 37.9368C42.2963 24.6177 60.8001 29.6131 60.8001 -0.0632324H15.2031C15.2031 29.6131 33.7069 24.6177 33.7069 37.9368C33.7069 51.2558 15.2031 46.2604 15.2031 75.9337H60.8001C60.8001 46.2604 42.2963 51.2558 42.2963 37.9368Z" fill="#B3B3B3"/>
<path d="M40.8642 37.9368C40.8642 24.6177 53.2 29.6131 53.2 -0.0632324H22.8062C22.8062 29.6131 35.142 24.6177 35.142 37.9368C35.142 51.2558 22.8062 46.2604 22.8062 75.9337H53.2031C53.2031 46.2604 40.8642 51.2558 40.8642 37.9368Z" fill="white"/>
<path d="M39.432 37.9368C39.432 24.6177 45.5999 29.6131 45.5999 -0.0632324H30.3999C30.3999 29.6131 36.5678 24.6177 36.5678 37.9368C36.5678 51.2558 30.3999 46.2604 30.3999 75.9337H45.5999C45.5999 46.2604 39.432 51.2558 39.432 37.9368Z" fill="black"/>
</g>
<defs>
<clipPath id="clip0_3444_3096">
<rect width="76" height="76" fill="white"/>
</clipPath>
</defs>
</svg>
