<?xml version="1.0" standalone="no"?>
<!DOCTYPE svg PUBLIC "-//W3C//DTD SVG 20010904//EN"
 "http://www.w3.org/TR/2001/REC-SVG-20010904/DTD/svg10.dtd">
<svg version="1.0" xmlns="http://www.w3.org/2000/svg"
 width="672.000000pt" height="276.000000pt" viewBox="0 0 672.000000 276.000000"
 preserveAspectRatio="xMidYMid meet">

<g transform="translate(0.000000,276.000000) scale(0.100000,-0.100000)"
fill="#000000" stroke="none">
<path d="M3407 2554 c-4 -4 -7 -142 -7 -306 l0 -298 205 0 205 0 0 60 0 60
-135 0 -135 0 -2 243 -3 242 -60 3 c-34 2 -64 0 -68 -4z"/>
<path d="M4710 2505 c0 -31 5 -87 11 -126 l12 -69 43 0 c32 0 44 4 48 18 11
40 28 169 24 197 -3 30 -4 30 -70 33 l-68 3 0 -56z"/>
<path d="M1485 2371 l-310 -179 -3 -312 c-2 -295 -1 -312 15 -305 10 3 152 84
316 178 l297 172 0 312 c0 172 -1 313 -3 313 -1 0 -142 -80 -312 -179z"/>
<path d="M4400 2460 l0 -60 -40 0 -40 0 0 -55 0 -55 34 0 34 0 3 -124 c3 -107
7 -129 25 -153 32 -44 80 -63 157 -63 l68 0 -3 58 -3 57 -40 3 c-61 5 -65 12
-65 123 l0 99 55 0 55 0 0 55 0 55 -55 0 -55 0 0 60 0 60 -65 0 -65 0 0 -60z"/>
<path d="M3963 2386 c-141 -66 -163 -285 -39 -394 94 -82 277 -56 331 48 27
52 21 60 -41 60 -46 0 -62 -5 -87 -26 -26 -22 -38 -25 -71 -21 -43 6 -76 35
-76 68 0 18 10 19 150 19 l150 0 0 53 c-1 166 -163 264 -317 193z m157 -106
c40 -40 27 -50 -60 -50 -87 0 -95 6 -55 45 31 32 86 34 115 5z"/>
<path d="M5015 2398 c-71 -25 -112 -93 -95 -158 15 -56 90 -109 155 -110 6 0
27 -5 48 -11 27 -7 37 -15 37 -30 0 -41 -99 -47 -121 -8 -8 16 -21 19 -75 19
l-66 0 7 -32 c18 -83 80 -122 195 -122 122 -1 200 56 200 143 0 74 -51 121
-152 141 -29 6 -63 13 -75 16 -29 6 -30 39 -3 54 26 14 68 3 81 -21 8 -16 21
-19 75 -19 l66 0 -6 28 c-23 95 -157 150 -271 110z"/>
<path d="M3400 1500 l0 -320 61 0 c52 0 62 3 66 20 5 19 6 19 36 -2 18 -13 51
-23 83 -26 69 -6 128 27 163 89 51 90 37 261 -27 322 -62 60 -159 71 -216 26
l-26 -20 0 115 0 116 -70 0 -70 0 0 -320z m267 5 c48 -34 54 -146 11 -192 -28
-30 -90 -31 -117 -4 -24 24 -36 79 -28 129 11 68 82 103 134 67z"/>
<path d="M4407 1813 c-4 -3 -7 -35 -7 -70 l0 -64 73 3 72 3 3 68 3 67 -69 0
c-38 0 -72 -3 -75 -7z"/>
<path d="M4620 1500 l0 -320 65 0 65 0 0 320 0 320 -65 0 -65 0 0 -320z"/>
<path d="M5117 1813 c-4 -3 -7 -55 -7 -115 l0 -109 -29 22 c-90 67 -226 4
-261 -120 -25 -91 -2 -215 50 -268 57 -58 155 -69 218 -24 29 21 30 21 35 1 4
-17 14 -20 66 -20 l61 0 0 320 0 320 -63 0 c-35 0 -67 -3 -70 -7z m-23 -324
c20 -24 26 -41 26 -80 0 -54 -20 -103 -45 -113 -9 -3 -32 -6 -50 -6 -60 0 -97
78 -75 159 20 75 97 96 144 40z"/>
<path d="M262 1444 l3 -316 620 -359 c341 -197 627 -358 635 -356 9 1 293 162
633 357 l616 355 1 313 c0 171 -2 312 -6 312 -3 0 -282 -160 -621 -356 -379
-219 -623 -354 -634 -351 -14 4 -531 300 -1132 648 l-117 69 2 -316z"/>
<path d="M3910 1457 c0 -202 8 -227 80 -264 55 -28 114 -29 165 -3 47 24 55
25 55 5 0 -12 13 -15 60 -15 l60 0 0 225 0 225 -64 0 -65 0 -3 -151 c-3 -147
-4 -151 -28 -169 -35 -27 -76 -25 -105 5 -24 23 -25 28 -25 170 l0 145 -65 0
-65 0 0 -173z"/>
<path d="M4410 1405 l0 -225 65 0 65 0 0 225 0 225 -65 0 -65 0 0 -225z"/>
<path d="M3875 1038 c-3 -7 -4 -153 -3 -323 l3 -310 65 0 65 0 3 145 c2 132 4
146 24 167 15 16 33 23 57 23 72 0 81 -23 81 -199 l0 -141 66 0 65 0 -3 184
c-3 169 -5 187 -24 213 -50 67 -156 88 -228 45 l-35 -21 -3 112 -3 112 -63 3
c-44 2 -64 -1 -67 -10z"/>
<path d="M3550 861 c-113 -23 -172 -103 -172 -233 0 -152 92 -236 247 -226 99
6 156 54 180 151 l7 27 -69 0 c-61 0 -69 -2 -78 -22 -14 -31 -54 -49 -91 -40
-43 12 -67 63 -60 132 6 61 37 100 80 100 28 0 76 -36 76 -56 0 -11 16 -14 71
-14 l71 0 -7 33 c-22 105 -137 172 -255 148z"/>
<path d="M4520 861 c-78 -16 -140 -73 -140 -128 0 -21 5 -23 55 -23 45 0 58 4
80 26 22 22 33 25 62 21 43 -7 49 -13 58 -49 l7 -28 -68 0 c-92 0 -141 -15
-181 -55 -28 -28 -33 -40 -33 -81 0 -61 28 -110 75 -130 50 -20 123 -18 168 6
l39 21 5 -21 c5 -19 12 -21 62 -18 l56 3 3 162 c3 184 -4 214 -60 256 -31 24
-103 48 -138 46 -8 -1 -31 -4 -50 -8z m116 -298 c-12 -47 -66 -74 -115 -57
-32 12 -41 52 -15 71 10 7 44 13 77 13 l59 0 -6 -27z"/>
<path d="M5063 860 c-18 -4 -44 -15 -57 -24 -32 -21 -36 -20 -36 4 0 18 -7 20
-60 20 l-60 0 0 -230 0 -230 65 0 65 0 0 144 c0 130 2 146 21 170 15 20 29 26
57 26 73 0 82 -23 82 -199 l0 -141 66 0 65 0 -3 184 c-3 169 -5 187 -24 213
-40 53 -115 79 -181 63z"/>
<path d="M5471 860 c-51 -12 -83 -40 -114 -101 -26 -50 -28 -61 -25 -141 4
-74 8 -93 34 -134 16 -26 45 -55 64 -65 47 -25 125 -25 168 1 l32 20 0 -44 c0
-54 -24 -78 -81 -80 -33 -1 -46 5 -65 27 -20 24 -30 27 -84 27 -67 0 -71 -5
-46 -63 61 -146 329 -142 397 7 17 37 19 69 19 294 l0 252 -61 0 c-52 0 -62
-3 -66 -20 -6 -24 -4 -24 -45 -1 -42 24 -84 31 -127 21z m120 -120 c33 -18 52
-68 47 -126 -7 -84 -55 -118 -125 -89 -25 11 -34 23 -43 56 -12 42 -7 98 12
132 17 32 73 46 109 27z"/>
<path d="M6000 861 c-112 -23 -173 -105 -174 -232 0 -85 31 -151 93 -194 40
-28 49 -30 129 -30 73 0 93 4 124 23 38 24 78 77 78 106 0 26 -113 23 -140 -4
-31 -31 -102 -28 -129 6 -12 15 -21 35 -21 45 0 18 10 19 150 19 l150 0 0 43
c0 92 -38 161 -109 196 -44 23 -105 31 -151 22z m103 -128 c9 -9 17 -24 17
-35 0 -16 -9 -18 -80 -18 -44 0 -80 3 -80 8 0 15 33 54 54 62 26 11 65 4 89
-17z"/>
<path d="M6320 470 l0 -70 70 0 70 0 0 70 0 70 -70 0 -70 0 0 -70z"/>
</g>
</svg>
