<?xml version="1.0" encoding="UTF-8" standalone="no"?>
<!-- Created with Inkscape (http://www.inkscape.org/) -->

<svg
   xmlns:dc="http://purl.org/dc/elements/1.1/"
   xmlns:cc="http://creativecommons.org/ns#"
   xmlns:rdf="http://www.w3.org/1999/02/22-rdf-syntax-ns#"
   xmlns:svg="http://www.w3.org/2000/svg"
   xmlns="http://www.w3.org/2000/svg"
   xmlns:sodipodi="http://sodipodi.sourceforge.net/DTD/sodipodi-0.dtd"
   xmlns:inkscape="http://www.inkscape.org/namespaces/inkscape"
   width="301.33096mm"
   height="122.07856mm"
   viewBox="0 0 1067.7081 432.56182"
   id="svg17963"
   version="1.1"
   inkscape:version="0.91 r13725"
   sodipodi:docname="logo_pirates_def.svg">
  <defs
     id="defs17965" />
  <sodipodi:namedview
     id="base"
     pagecolor="#ffffff"
     bordercolor="#666666"
     borderopacity="1.0"
     inkscape:pageopacity="0.0"
     inkscape:pageshadow="2"
     inkscape:zoom="0.35"
     inkscape:cx="1195.5301"
     inkscape:cy="-92.909184"
     inkscape:document-units="px"
     inkscape:current-layer="layer1"
     showgrid="false"
     fit-margin-top="30"
     fit-margin-left="30"
     fit-margin-right="30"
     fit-margin-bottom="30"
     inkscape:window-width="1920"
     inkscape:window-height="971"
     inkscape:window-x="0"
     inkscape:window-y="1"
     inkscape:window-maximized="1" />
  <metadata
     id="metadata17968">
    <rdf:RDF>
      <cc:Work
         rdf:about="">
        <dc:format>image/svg+xml</dc:format>
        <dc:type
           rdf:resource="http://purl.org/dc/dcmitype/StillImage" />
        <dc:title></dc:title>
      </cc:Work>
    </rdf:RDF>
  </metadata>
  <g
     inkscape:label="Capa 1"
     inkscape:groupmode="layer"
     id="layer1"
     transform="translate(7.672967,-464.03406)">
    <path
       d="m 407.22737,622.35037 q 27.64465,0 42.44792,9.80939 14.80327,9.63104 14.80327,31.74676 0,22.29408 -14.98162,32.28183 -14.98162,9.80939 -42.80463,9.80939 l -8.73928,0 0,41.37781 -27.823,0 0,-121.81483 q 9.09598,-1.78353 19.26208,-2.49694 10.1661,-0.71341 17.83526,-0.71341 z m 1.78352,23.7209 q -3.03199,0 -6.06398,0.17835 -2.85364,0.17835 -4.99388,0.35671 l 0,35.67052 8.73928,0 q 14.44657,0 21.75903,-3.92376 7.31245,-3.92376 7.31245,-14.62491 0,-5.17223 -1.96188,-8.56093 -1.78352,-3.3887 -5.35057,-5.35058 -3.38871,-2.14023 -8.38258,-2.85364 -4.99387,-0.89176 -11.05787,-0.89176 z"
       style="font-style:normal;font-variant:normal;font-weight:bold;font-stretch:normal;font-size:medium;line-height:125%;font-family:Ubuntu;-inkscape-font-specification:'Ubuntu, Medium';text-align:start;letter-spacing:0px;word-spacing:0px;writing-mode:lr-tb;text-anchor:start;fill:#000000;fill-opacity:1;stroke:none;stroke-width:1px;stroke-linecap:butt;stroke-linejoin:miter;stroke-opacity:1"
       id="path18543"
       inkscape:connector-curvature="0" />
    <path
       d="m 509.87486,747.37555 -26.57453,0 0,-93.81348 26.57453,0 0,93.81348 z m 2.49694,-120.92306 q 0,7.31245 -4.81552,11.59292 -4.63716,4.1021 -11.05786,4.1021 -6.42069,0 -11.23622,-4.1021 -4.63716,-4.28047 -4.63716,-11.59292 0,-7.31247 4.63716,-11.41458 4.81553,-4.28046 11.23622,-4.28046 6.4207,0 11.05786,4.28046 4.81552,4.10211 4.81552,11.41458 z"
       style="font-style:normal;font-variant:normal;font-weight:bold;font-stretch:normal;font-size:medium;line-height:125%;font-family:Ubuntu;-inkscape-font-specification:'Ubuntu, Medium';text-align:start;letter-spacing:0px;word-spacing:0px;writing-mode:lr-tb;text-anchor:start;fill:#000000;fill-opacity:1;stroke:none;stroke-width:1px;stroke-linecap:butt;stroke-linejoin:miter;stroke-opacity:1"
       id="path18545"
       inkscape:connector-curvature="0" />
    <path
       d="m 591.39317,677.10462 q -3.56706,-0.89177 -8.38258,-1.78352 -4.81552,-1.07013 -10.34445,-1.07013 -2.49694,0 -6.06399,0.53507 -3.38869,0.3567 -5.17223,0.89176 l 0,71.69775 -26.57453,0 0,-88.8196 q 7.1341,-2.49694 16.76515,-4.63716 9.80938,-2.3186 21.75901,-2.3186 2.14023,0 5.17223,0.35671 3.032,0.17836 6.06399,0.71342 3.03199,0.3567 6.06399,1.07011 3.03199,0.53506 5.17221,1.42682 l -4.4588,21.93737 z"
       style="font-style:normal;font-variant:normal;font-weight:bold;font-stretch:normal;font-size:medium;line-height:125%;font-family:Ubuntu;-inkscape-font-specification:'Ubuntu, Medium';text-align:start;letter-spacing:0px;word-spacing:0px;writing-mode:lr-tb;text-anchor:start;fill:#000000;fill-opacity:1;stroke:none;stroke-width:1px;stroke-linecap:butt;stroke-linejoin:miter;stroke-opacity:1"
       id="path18547"
       inkscape:connector-curvature="0" />
    <path
       d="m 644.20503,728.82688 q 3.92377,0 7.49082,-0.17836 3.56705,-0.17835 5.70727,-0.53505 l 0,-20.15385 q -1.60517,-0.3567 -4.81552,-0.71341 -3.21035,-0.3567 -5.88563,-0.3567 -3.7454,0 -7.1341,0.53505 -3.21035,0.35671 -5.70728,1.60518 -2.49694,1.24847 -3.92377,3.3887 -1.42681,2.14023 -1.42681,5.35057 0,6.24235 4.10211,8.73928 4.28046,2.31859 11.59291,2.31859 z m -2.14023,-77.76174 q 11.77127,0 19.61878,2.67529 7.84753,2.67529 12.48469,7.66916 4.81552,4.99387 6.7774,12.12798 1.96188,7.1341 1.96188,15.87338 l 0,55.28931 q -5.70728,1.24847 -15.87338,2.85364 -10.1661,1.78353 -24.61266,1.78353 -9.09598,0 -16.58679,-1.60518 -7.31246,-1.60517 -12.66303,-5.17222 -5.35059,-3.74541 -8.20423,-9.63104 -2.85364,-5.88564 -2.85364,-14.44656 0,-8.20422 3.21034,-13.91151 3.38871,-5.70728 8.91764,-9.09598 5.52893,-3.3887 12.66303,-4.81552 7.13411,-1.60517 14.80327,-1.60517 5.17223,0 9.09598,0.53505 4.1021,0.35671 6.59904,1.07012 l 0,-2.49694 q 0,-6.7774 -4.1021,-10.8795 -4.10211,-4.10212 -14.26822,-4.10212 -6.7774,0 -13.37644,1.07011 -6.59904,0.89177 -11.41456,2.6753 l -3.38871,-21.40232 q 2.3186,-0.71341 5.70729,-1.42682 3.56705,-0.89176 7.66917,-1.42681 4.1021,-0.71342 8.56092,-1.07013 4.63717,-0.53505 9.27433,-0.53505 z"
       style="font-style:normal;font-variant:normal;font-weight:bold;font-stretch:normal;font-size:medium;line-height:125%;font-family:Ubuntu;-inkscape-font-specification:'Ubuntu, Medium';text-align:start;letter-spacing:0px;word-spacing:0px;writing-mode:lr-tb;text-anchor:start;fill:#000000;fill-opacity:1;stroke:none;stroke-width:1px;stroke-linecap:butt;stroke-linejoin:miter;stroke-opacity:1"
       id="path18549"
       inkscape:connector-curvature="0" />
    <path
       d="m 706.046,630.19788 26.57454,-4.28046 0,27.64465 31.92512,0 0,22.11573 -31.92512,0 0,32.99523 q 0,8.38257 2.85364,13.37645 3.03199,4.99387 11.94963,4.99387 4.28046,0 8.73928,-0.71341 4.63716,-0.89176 8.38257,-2.31858 l 3.74541,20.6889 q -4.81552,1.96188 -10.70117,3.3887 -5.88563,1.42682 -14.44655,1.42682 -10.87951,0 -18.01362,-2.85364 -7.1341,-3.032 -11.41456,-8.20422 -4.28046,-5.35058 -6.06399,-12.84139 -1.60518,-7.49081 -1.60518,-16.58679 l 0,-78.83186 z"
       style="font-style:normal;font-variant:normal;font-weight:bold;font-stretch:normal;font-size:medium;line-height:125%;font-family:Ubuntu;-inkscape-font-specification:'Ubuntu, Medium';text-align:start;letter-spacing:0px;word-spacing:0px;writing-mode:lr-tb;text-anchor:start;fill:#000000;fill-opacity:1;stroke:none;stroke-width:1px;stroke-linecap:butt;stroke-linejoin:miter;stroke-opacity:1"
       id="path18551"
       inkscape:connector-curvature="0" />
    <path
       d="m 778.06979,701.18222 q 0,-12.48468 3.74541,-21.75902 3.92376,-9.45269 10.1661,-15.69502 6.24233,-6.24234 14.2682,-9.45269 8.20423,-3.21035 16.76515,-3.21035 19.97549,0 31.56841,12.30633 11.59292,12.12797 11.59292,35.84887 0,2.31859 -0.17835,5.17223 -0.17835,2.67529 -0.35671,4.81552 l -60.28317,0 q 0.89175,8.20422 7.66915,13.01974 6.7774,4.81552 18.19198,4.81552 7.31245,0 14.2682,-1.24847 7.13411,-1.42682 11.59292,-3.3887 l 3.56705,21.58067 q -2.14023,1.07011 -5.70728,2.14023 -3.56705,1.07011 -8.02587,1.78352 -4.28046,0.89177 -9.27434,1.42683 -4.99387,0.53505 -9.98775,0.53505 -12.66303,0 -22.11572,-3.7454 -9.27432,-3.74541 -15.51667,-10.1661 -6.06399,-6.59905 -9.09598,-15.51668 -2.85365,-8.91763 -2.85365,-19.26208 z m 62.42341,-10.1661 q -0.17834,-3.3887 -1.24847,-6.59904 -0.89175,-3.21035 -3.03199,-5.70729 -1.96187,-2.49694 -5.17222,-4.1021 -3.03199,-1.60517 -7.66917,-1.60517 -4.4588,0 -7.66915,1.60517 -3.21035,1.42682 -5.35058,3.92376 -2.14024,2.49693 -3.3887,5.88563 -1.07012,3.21034 -1.60517,6.59904 l 35.13545,0 z"
       style="font-style:normal;font-variant:normal;font-weight:bold;font-stretch:normal;font-size:medium;line-height:125%;font-family:Ubuntu;-inkscape-font-specification:'Ubuntu, Medium';text-align:start;letter-spacing:0px;word-spacing:0px;writing-mode:lr-tb;text-anchor:start;fill:#000000;fill-opacity:1;stroke:none;stroke-width:1px;stroke-linecap:butt;stroke-linejoin:miter;stroke-opacity:1"
       id="path18553"
       inkscape:connector-curvature="0" />
    <path
       d="m 913.96332,728.29182 q 7.31247,0 10.34447,-1.42682 3.03199,-1.42682 3.03199,-5.52893 0,-3.21035 -3.92376,-5.52893 -3.92377,-2.49694 -11.94962,-5.52893 -6.24234,-2.31859 -11.41458,-4.81553 -4.99387,-2.49693 -8.56092,-5.88563 -3.56705,-3.56705 -5.52893,-8.38257 -1.96188,-4.81552 -1.96188,-11.59292 0,-13.1981 9.80939,-20.86726 9.80939,-7.66916 26.93124,-7.66916 8.56093,0 16.40845,1.60518 7.84752,1.42681 12.48468,3.21033 l -4.63716,20.68892 q -4.63718,-1.60518 -10.16611,-2.85365 -5.35058,-1.24847 -12.12798,-1.24847 -12.48467,0 -12.48467,6.95575 0,1.60518 0.53506,2.85365 0.53505,1.24846 2.14022,2.49693 1.60518,1.07012 4.28046,2.49694 2.85365,1.24847 7.13412,2.85364 8.73926,3.21035 14.44655,6.42069 5.70729,3.032 8.91763,6.7774 3.3887,3.56706 4.63717,8.02587 1.42683,4.45882 1.42683,10.34445 0,13.9115 -10.52281,21.04561 -10.34445,7.1341 -29.42818,7.1341 -12.48469,0 -20.86726,-2.14023 -8.20422,-2.14023 -11.41457,-3.56705 l 4.45882,-21.58066 q 6.7774,2.67528 13.9115,4.28046 7.13411,1.42682 14.08985,1.42682 z"
       style="font-style:normal;font-variant:normal;font-weight:bold;font-stretch:normal;font-size:medium;line-height:125%;font-family:Ubuntu;-inkscape-font-specification:'Ubuntu, Medium';text-align:start;letter-spacing:0px;word-spacing:0px;writing-mode:lr-tb;text-anchor:start;fill:#000000;fill-opacity:1;stroke:none;stroke-width:1px;stroke-linecap:butt;stroke-linejoin:miter;stroke-opacity:1"
       id="path18555"
       inkscape:connector-curvature="0" />
    <path
       inkscape:connector-curvature="0"
       d="m 163.73323,595.46185 0,18.66045 c -6.86463,2.09102 -10.81664,4.26171 -10.17492,5.65581 2.25549,-0.65715 5.86524,-0.94876 10.17492,-0.6717 l 0,96.95532 c -10.48582,20.19442 4.50778,51.17077 4.50778,51.17077 0,0 -11.13148,-33.05282 13.65811,-48.69073 22.80801,-14.38787 101.43862,-7.62756 101.16835,-52.00584 -0.38317,-62.85946 -72.88604,-62.47965 -109.25509,-54.94161 l 0,-16.13247 -10.07915,0 z m 10.07915,25.19701 c 18.19112,4.37458 39.5531,18.31592 32.45663,51.90992 -3.53203,16.71988 -21.80292,25.45732 -32.45663,32.68168 l 0,-84.5916 z m 34.79558,169.63781 c -60.74129,0 -109.981714,-49.24039 -109.981714,-109.9817 0,-60.74082 49.240424,-109.9817 109.981714,-109.9817 60.74128,0 109.98169,49.24088 109.98169,109.9817 0,60.74186 -49.24041,109.9817 -109.98169,109.9817 z"
       style="fill:#000000;fill-opacity:1"
       id="path4291" />
  </g>
</svg>
